<svg width="95" height="95" viewBox="0 0 95 95" fill="none" xmlns="http://www.w3.org/2000/svg">
<g clip-path="url(#clip0_6268_44828)">
<path d="M51.7862 44.9756H49.7458V34.3614H51.5908L51.8079 35.9893C52.4808 34.7738 53.8266 34.0575 55.3243 34.0575C58.1244 34.0575 59.405 35.7723 59.405 38.4856V44.9756H57.3647V38.9414C57.3647 36.7925 56.3661 35.9242 54.8033 35.9242C52.8932 35.9242 51.7862 37.2917 51.7862 39.3538V44.9756Z" fill="white"/>
<path d="M41.688 45.2361C39.4089 45.2361 38.0631 43.9555 38.0631 42.0236C38.0631 40.0701 39.5174 38.8545 42.0136 38.6592L45.3563 38.3987V38.0949C45.3563 36.3149 44.2928 35.6855 42.8602 35.6855C41.1454 35.6855 40.1686 36.4452 40.1686 37.7258H38.3887C38.3887 35.5118 40.212 34.0575 42.9469 34.0575C45.5734 34.0575 47.3533 35.4467 47.3533 38.3119V44.9756H45.6168L45.3998 43.2609C44.8571 44.4765 43.4028 45.2361 41.688 45.2361ZM42.2741 43.6516C44.206 43.6516 45.3781 42.3927 45.3781 40.3957V39.8313L42.6648 40.0484C40.8632 40.222 40.1252 40.9166 40.1252 41.9585C40.1252 43.0872 40.95 43.6516 42.2741 43.6516Z" fill="white"/>
<path d="M37.5286 34.2746V36.1413H36.6169C34.6851 36.1413 33.4913 37.3134 33.4913 39.3538V44.9756H31.4509V34.3831H33.361L33.4913 35.9894C33.9254 34.8823 34.989 34.1443 36.4433 34.1443C36.8123 34.1443 37.1162 34.1878 37.5286 34.2746Z" fill="white"/>
<path d="M23.3948 45.2361C21.1157 45.2361 19.7699 43.9555 19.7699 42.0236C19.7699 40.0701 21.2242 38.8545 23.7204 38.6592L27.0631 38.3987V38.0949C27.0631 36.3149 25.9996 35.6855 24.567 35.6855C22.8521 35.6855 21.8753 36.4452 21.8753 37.7258H20.0955C20.0955 35.5118 21.9188 34.0575 24.6538 34.0575C27.2802 34.0575 29.0601 35.4467 29.0601 38.3119V44.9756H27.3236L27.1066 43.2609C26.5639 44.4765 25.1096 45.2361 23.3948 45.2361ZM23.9809 43.6516C25.9127 43.6516 27.0848 42.3927 27.0848 40.3957V39.8313L24.3716 40.0484C22.57 40.222 21.832 40.9166 21.832 41.9585C21.832 43.0872 22.6568 43.6516 23.9809 43.6516Z" fill="white"/>
<path d="M12.0404 44.9756H10V29H12.0404V39.3538L16.7506 34.3614H19.3119L15.2529 38.5941L19.2902 44.9756H16.9459L13.842 40.0701L12.0404 41.9585V44.9756Z" fill="white"/>
<path d="M75.9107 66.6817H73.8703V50.706H75.9107V61.0598L80.6208 56.0674H83.1822L79.1231 60.3001L83.1605 66.6817H80.8162L77.7123 61.7761L75.9107 63.6646V66.6817Z" fill="white"/>
<path d="M70.2569 53.5496C69.5189 53.5496 68.9111 52.9417 68.9111 52.2038C68.9111 51.444 69.5189 50.8579 70.2569 50.8579C70.9949 50.8579 71.6027 51.444 71.6027 52.2038C71.6027 52.9417 70.9949 53.5496 70.2569 53.5496ZM69.2584 66.6817V56.0674H71.2988V66.6817H69.2584Z" fill="white"/>
<path d="M59.2469 66.66H57.2065V50.706H59.2469V57.6954C59.9197 56.545 61.2004 55.7636 62.8501 55.7636C65.5633 55.7636 66.8657 57.4783 66.8657 60.1916V66.6817H64.8254V60.6474C64.8254 58.4985 63.8051 57.6302 62.2858 57.6302C60.3104 57.6302 59.2469 59.0628 59.2469 60.8861V66.66Z" fill="white"/>
<path d="M47.0436 63.5994H48.9972C48.9972 64.6848 49.8219 65.3359 51.1677 65.3359C52.6003 65.3359 53.4252 64.7499 53.4252 63.7731C53.4252 63.0568 53.0778 62.6227 51.9708 62.3405L50.1042 61.9064C48.2157 61.4505 47.3258 60.5172 47.3258 58.9544C47.3258 57.0008 48.9754 55.7636 51.3196 55.7636C53.6422 55.7636 55.1616 57.0659 55.2051 59.0846H53.2515C53.2081 58.0209 52.4918 57.3481 51.2545 57.3481C49.9739 57.3481 49.2576 57.9125 49.2576 58.8892C49.2576 59.6055 49.7786 60.083 50.8205 60.3435L52.6871 60.7994C54.4888 61.2335 55.3787 62.0583 55.3787 63.6429C55.3787 65.6615 53.6422 66.9421 51.1243 66.9421C48.6281 66.9421 47.0436 65.6181 47.0436 63.5994Z" fill="white"/>
<path d="M34.1126 66.6817L30.6395 56.0674H32.7451L34.5033 61.5808C34.742 62.3622 34.9591 63.1653 35.1544 64.0987C35.328 63.1653 35.6103 62.2754 35.849 61.5808L37.6289 56.0674H39.7127L41.4709 61.5808C41.6445 62.1017 41.9919 63.339 42.1654 64.0987C42.3391 63.2522 42.5345 62.5141 42.8384 61.5808L44.6183 56.0674H46.7455L43.1205 66.6817H41.1887L39.3437 60.9947C38.9964 59.9311 38.7793 59.1063 38.6708 58.5202C38.5623 59.0412 38.3669 59.7358 37.9762 61.0164L36.1312 66.6817H34.1126Z" fill="white"/>
<path d="M19.4478 61.3637C19.4478 58.0861 21.792 55.7852 24.9828 55.7852C28.1518 55.7852 30.4961 58.0861 30.4961 61.3637C30.4961 64.6413 28.1518 66.9421 24.9828 66.9421C21.792 66.9421 19.4478 64.6413 19.4478 61.3637ZM21.5098 61.3637C21.5098 63.5778 22.9207 65.1188 24.9828 65.1188C27.0231 65.1188 28.4557 63.5778 28.4557 61.3637C28.4557 59.1497 27.0231 57.6086 24.9828 57.6086C22.9207 57.6086 21.5098 59.1497 21.5098 61.3637Z" fill="white"/>
<path d="M12.0404 66.6817H10V50.706H12.0404V61.0598L16.7506 56.0674H19.3119L15.2529 60.3001L19.2902 66.6817H16.9459L13.842 61.7761L12.0404 63.6646V66.6817Z" fill="white"/>
<path d="M66.8609 32.7604L66.4532 41.3122L76.4836 44.6913L81.3964 38.9507C81.3964 38.9507 77.6526 40.3326 76.138 38.8932C74.6877 37.5148 75.7333 33.9785 75.7333 33.9785C75.7333 33.9785 72.963 37.2869 70.6497 36.7919C68.5479 36.3422 66.8609 32.7604 66.8609 32.7604Z" stroke="#635BFF" stroke-width="1.98636" stroke-linejoin="round"/>
</g>
<defs>
<clipPath id="clip0_6268_44828">
<rect width="73.4091" height="38" fill="white" transform="translate(10 29)"/>
</clipPath>
</defs>
</svg>
