<svg width="56" height="261" viewBox="0 0 56 261" fill="none" xmlns="http://www.w3.org/2000/svg">
<path d="M37.3642 257.674C45.198 248.22 51.0847 237.667 55.2748 226.208C57.9602 218.777 46.5044 214.271 43.7862 221.796C41.8223 227.148 39.5134 232.274 36.6704 237.109C36.74 236.604 36.8423 236.004 36.7229 235.434C30.5513 159.298 31.0568 82.8349 38.1986 6.76996C38.929 -1.12729 26.7072 -2.51227 25.9768 5.38497C18.7905 82.493 18.3349 160.032 24.5563 237.243L24.5235 237.338C20.4022 233.049 16.1536 228.822 12.0322 224.533C6.56728 218.931 -2.98408 226.624 2.54254 232.353C10.9125 240.869 19.2496 249.48 27.5251 257.963C30.5246 260.91 34.6681 260.866 37.3642 257.674ZM34.4099 240.876C33.5401 242.162 32.6703 243.448 31.8005 244.734C31.0198 243.933 30.2391 243.133 29.4584 242.333C31.1339 242.385 32.9733 241.965 34.4099 240.876Z" fill="#1D1D1D"/>
</svg>
