<svg width="3262" height="1168" viewBox="0 0 3262 1168" fill="none" xmlns="http://www.w3.org/2000/svg">
<rect x="106.829" y="106.83" width="3048.2" height="954.341" stroke="black" stroke-width="42.7317"/>
<rect x="21.3659" y="21.3659" width="170.927" height="170.927" fill="#1E1E1E" stroke="black" stroke-width="42.7317"/>
<rect x="3069.56" y="21.3659" width="170.927" height="170.927" fill="#1E1E1E" stroke="black" stroke-width="42.7317"/>
<rect x="21.3659" y="975.708" width="170.927" height="170.927" fill="#1E1E1E" stroke="black" stroke-width="42.7317"/>
<rect x="3069.56" y="975.708" width="170.927" height="170.927" fill="#1E1E1E" stroke="black" stroke-width="42.7317"/>
<path d="M750.654 423.536C843.951 423.536 920.869 505.439 920.869 611.556C920.869 717.673 843.951 799.575 750.654 799.575C702.937 799.575 668.039 783.195 644.537 756.132V932.044H537.708V433.507H644.537V466.98C668.039 439.917 702.937 423.536 750.654 423.536ZM729.288 698.444C778.429 698.444 814.039 664.971 814.039 611.556C814.039 558.141 778.429 524.668 729.288 524.668C680.147 524.668 644.537 558.141 644.537 611.556C644.537 664.971 680.147 698.444 729.288 698.444ZM1088.27 496.893C1102.51 449.175 1150.23 426.385 1195.1 426.385V547.458C1150.94 540.336 1088.27 558.141 1088.27 628.649V789.605H981.438V433.507H1088.27V496.893ZM1493.13 433.507H1599.96V789.605H1493.13V756.132C1469.63 783.195 1434.73 799.575 1387.01 799.575C1293.71 799.575 1216.8 717.673 1216.8 611.556C1216.8 505.439 1293.71 423.536 1387.01 423.536C1434.73 423.536 1469.63 439.917 1493.13 466.98V433.507ZM1408.38 698.444C1457.52 698.444 1493.13 664.971 1493.13 611.556C1493.13 558.141 1457.52 524.668 1408.38 524.668C1359.24 524.668 1323.63 558.141 1323.63 611.556C1323.63 664.971 1359.24 698.444 1408.38 698.444ZM1887.01 536.063H1813.65V662.122C1813.65 692.746 1840 695.595 1887.01 692.746V789.605C1747.42 803.849 1706.82 761.829 1706.82 662.122V536.063H1649.84V433.507H1706.82V365.849L1813.65 333.8V433.507H1887.01V536.063ZM2145.04 536.063H2071.68V662.122C2071.68 692.746 2098.03 695.595 2145.04 692.746V789.605C2005.45 803.849 1964.85 761.829 1964.85 662.122V536.063H1907.88V433.507H1964.85V365.849L2071.68 333.8V433.507H2145.04V536.063Z" fill="black"/>
<rect x="498.537" y="439.24" width="42.7317" height="498.537" fill="#5833DE"/>
<rect x="455.805" y="439.24" width="42.7317" height="498.537" fill="#E9596A"/>
<g filter="url(#filter0_d_6155_3472)">
<path d="M2308.38 424.712C2295.8 364.562 2360.19 317.779 2413.51 348.336L2796.55 567.863C2850.61 598.845 2841.63 679.406 2782.08 697.725L2629.25 744.736C2613.28 749.648 2599.55 760.017 2590.46 774.029L2526.48 872.586C2491.86 925.902 2410.05 910.611 2397.03 848.393L2308.38 424.712Z" fill="#333333"/>
<path d="M2403.74 365.374L2786.78 584.901C2825.94 607.34 2819.43 665.687 2776.3 678.955L2623.48 725.966C2603.11 732.233 2585.59 745.46 2573.98 763.336L2510 861.894C2484.94 900.508 2425.68 889.433 2416.25 844.371L2327.6 420.69C2318.49 377.126 2365.13 343.243 2403.74 365.374Z" stroke="black" stroke-width="39.2759"/>
</g>
<defs>
<filter id="filter0_d_6155_3472" x="2228.24" y="299.439" width="682.686" height="723.455" filterUnits="userSpaceOnUse" color-interpolation-filters="sRGB">
<feFlood flood-opacity="0" result="BackgroundImageFix"/>
<feColorMatrix in="SourceAlpha" type="matrix" values="0 0 0 0 0 0 0 0 0 0 0 0 0 0 0 0 0 0 127 0" result="hardAlpha"/>
<feOffset dy="39.2759"/>
<feGaussianBlur stdDeviation="39.2759"/>
<feColorMatrix type="matrix" values="0 0 0 0 0 0 0 0 0 0 0 0 0 0 0 0 0 0 0.28 0"/>
<feBlend mode="normal" in2="BackgroundImageFix" result="effect1_dropShadow_6155_3472"/>
<feBlend mode="normal" in="SourceGraphic" in2="effect1_dropShadow_6155_3472" result="shape"/>
</filter>
</defs>
</svg>
