<svg width="1311" height="37" viewBox="0 0 1311 37" fill="none" xmlns="http://www.w3.org/2000/svg">
<g clip-path="url(#clip0_6247_38753)">
<rect width="37" height="1311" transform="matrix(0 -1 -1 0 1311 37)" fill="#171717"/>
<path d="M1 37H0L0 3H1L1 37Z" fill="#3A3A3A"/>
<path d="M1301 37H1300V25H1301V37Z" fill="#3A3A3A"/>
<path d="M1274 37H1273V25H1274V37Z" fill="#3A3A3A"/>
<path d="M1247 37H1246V25H1247V37Z" fill="#3A3A3A"/>
<path d="M1220 37H1219V25H1220V37Z" fill="#3A3A3A"/>
<path d="M1193 37H1192V25H1193V37Z" fill="#3A3A3A"/>
<path d="M1166 37H1165V25H1166V37Z" fill="#3A3A3A"/>
<path d="M1139 37H1138V25H1139V37Z" fill="#3A3A3A"/>
<path d="M1112 37H1111V25H1112V37Z" fill="#3A3A3A"/>
<path d="M653 37H652V25H653V37Z" fill="#3A3A3A"/>
<path d="M626 37H625V25H626V37Z" fill="#3A3A3A"/>
<path d="M599 37H598V25H599V37Z" fill="#3A3A3A"/>
<path d="M572 37H571V25H572V37Z" fill="#3A3A3A"/>
<path d="M545 37H544V25H545V37Z" fill="#3A3A3A"/>
<path d="M518 37H517V25H518V37Z" fill="#3A3A3A"/>
<path d="M491 37H490V25H491V37Z" fill="#3A3A3A"/>
<path d="M464 37H463V25H464V37Z" fill="#3A3A3A"/>
<path d="M1085 37H1084V25H1085V37Z" fill="#3A3A3A"/>
<path d="M1058 37H1057V25H1058V37Z" fill="#3A3A3A"/>
<path d="M1031 37H1030V25H1031V37Z" fill="#3A3A3A"/>
<path d="M1004 37H1003V25H1004V37Z" fill="#3A3A3A"/>
<path d="M977 37H976V25H977V37Z" fill="#3A3A3A"/>
<path d="M950 37H949V25H950V37Z" fill="#3A3A3A"/>
<path d="M923 37H922V25H923V37Z" fill="#3A3A3A"/>
<path d="M896 37H895V25H896V37Z" fill="#3A3A3A"/>
<path d="M437 37H436V25H437V37Z" fill="#3A3A3A"/>
<path d="M410 37H409V25H410V37Z" fill="#3A3A3A"/>
<path d="M383 37H382V25H383V37Z" fill="#3A3A3A"/>
<path d="M356 37H355V25H356V37Z" fill="#3A3A3A"/>
<path d="M329 37H328V25H329V37Z" fill="#3A3A3A"/>
<path d="M302 37H301V25H302V37Z" fill="#3A3A3A"/>
<path d="M275 37H274V25H275V37Z" fill="#3A3A3A"/>
<path d="M248 37H247V25H248V37Z" fill="#3A3A3A"/>
<path d="M1311 36V37L0 37V36L1311 36Z" fill="#3A3A3A"/>
<path d="M1311 3V4L0 4V3L1311 3Z" fill="#3A3A3A"/>
<path d="M869 36H868V24H869V36Z" fill="#3A3A3A"/>
<path d="M842 36H841V24H842V36Z" fill="#3A3A3A"/>
<path d="M815 36H814V24H815V36Z" fill="#3A3A3A"/>
<path d="M788 36H787V24H788V36Z" fill="#3A3A3A"/>
<path d="M761 36H760V24H761V36Z" fill="#3A3A3A"/>
<path d="M734 36H733V24H734V36Z" fill="#3A3A3A"/>
<path d="M707 36H706V24H707V36Z" fill="#3A3A3A"/>
<path d="M680 36H679V24H680V36Z" fill="#3A3A3A"/>
<path d="M223 36H222V24H223V36Z" fill="#3A3A3A"/>
<path d="M196 36H195V24H196V36Z" fill="#3A3A3A"/>
<path d="M169 36H168V24H169V36Z" fill="#3A3A3A"/>
<path d="M142 36H141V24H142V36Z" fill="#3A3A3A"/>
<path d="M115 36H114V24H115V36Z" fill="#3A3A3A"/>
<path d="M88 36H87V24H88V36Z" fill="#3A3A3A"/>
<path d="M61 36H60V24H61V36Z" fill="#3A3A3A"/>
<path d="M34 36H33L33 3H34L34 36Z" fill="#3A3A3A"/>
</g>
<defs>
<clipPath id="clip0_6247_38753">
<rect width="37" height="1311" fill="white" transform="matrix(0 -1 -1 0 1311 37)"/>
</clipPath>
</defs>
</svg>
