<svg width="109" height="1311" viewBox="0 0 109 1311" fill="none" xmlns="http://www.w3.org/2000/svg">
<rect y="1203" width="0.999992" height="53" transform="rotate(-90 0 1203)" fill="#3A3A3A"/>
<rect y="1210" width="1" height="12" transform="rotate(-90 0 1210)" fill="#3A3A3A"/>
<rect y="1217" width="1" height="20" transform="rotate(-90 0 1217)" fill="#3A3A3A"/>
<rect y="1224" width="1" height="12" transform="rotate(-90 0 1224)" fill="#3A3A3A"/>
<rect y="1230" width="1" height="35" transform="rotate(-90 0 1230)" fill="#3A3A3A"/>
<rect y="1237" width="1.00001" height="12" transform="rotate(-90 0 1237)" fill="#3A3A3A"/>
<rect y="1244" width="0.999996" height="20" transform="rotate(-90 0 1244)" fill="#3A3A3A"/>
<rect y="1251" width="1" height="12" transform="rotate(-90 0 1251)" fill="#3A3A3A"/>
<rect y="1257" width="0.999996" height="53" transform="rotate(-90 0 1257)" fill="#3A3A3A"/>
<rect y="1264" width="1" height="12" transform="rotate(-90 0 1264)" fill="#3A3A3A"/>
<rect y="1271" width="1" height="20" transform="rotate(-90 0 1271)" fill="#3A3A3A"/>
<rect y="1278" width="1" height="12" transform="rotate(-90 0 1278)" fill="#3A3A3A"/>
<rect y="1284" width="1" height="35" transform="rotate(-90 0 1284)" fill="#3A3A3A"/>
<rect y="1291" width="1" height="12" transform="rotate(-90 0 1291)" fill="#3A3A3A"/>
<rect y="1298" width="1" height="20" transform="rotate(-90 0 1298)" fill="#3A3A3A"/>
<rect y="1305" width="1" height="12" transform="rotate(-90 0 1305)" fill="#3A3A3A"/>
<rect y="1094" width="0.999992" height="53" transform="rotate(-90 0 1094)" fill="#3A3A3A"/>
<rect y="1101" width="1" height="12" transform="rotate(-90 0 1101)" fill="#3A3A3A"/>
<rect y="1108" width="1" height="20" transform="rotate(-90 0 1108)" fill="#3A3A3A"/>
<rect y="1115" width="1" height="12" transform="rotate(-90 0 1115)" fill="#3A3A3A"/>
<rect y="1121" width="1" height="35" transform="rotate(-90 0 1121)" fill="#3A3A3A"/>
<rect y="1128" width="1.00001" height="12" transform="rotate(-90 0 1128)" fill="#3A3A3A"/>
<rect y="1135" width="0.999996" height="20" transform="rotate(-90 0 1135)" fill="#3A3A3A"/>
<rect y="1142" width="1" height="12" transform="rotate(-90 0 1142)" fill="#3A3A3A"/>
<rect y="1148" width="0.999996" height="53" transform="rotate(-90 0 1148)" fill="#3A3A3A"/>
<rect y="1155" width="1" height="12" transform="rotate(-90 0 1155)" fill="#3A3A3A"/>
<rect y="1162" width="1" height="20" transform="rotate(-90 0 1162)" fill="#3A3A3A"/>
<rect y="1169" width="1" height="12" transform="rotate(-90 0 1169)" fill="#3A3A3A"/>
<rect y="1175" width="1" height="35" transform="rotate(-90 0 1175)" fill="#3A3A3A"/>
<rect y="1182" width="1" height="12" transform="rotate(-90 0 1182)" fill="#3A3A3A"/>
<rect y="1189" width="1" height="20" transform="rotate(-90 0 1189)" fill="#3A3A3A"/>
<rect y="1196" width="1" height="12" transform="rotate(-90 0 1196)" fill="#3A3A3A"/>
<rect y="985" width="0.999992" height="53" transform="rotate(-90 0 985)" fill="#3A3A3A"/>
<rect y="992" width="1" height="12" transform="rotate(-90 0 992)" fill="#3A3A3A"/>
<rect y="999" width="1" height="20" transform="rotate(-90 0 999)" fill="#3A3A3A"/>
<rect y="1006" width="1" height="12" transform="rotate(-90 0 1006)" fill="#3A3A3A"/>
<rect y="1012" width="1" height="35" transform="rotate(-90 0 1012)" fill="#3A3A3A"/>
<rect y="1019" width="1.00001" height="12" transform="rotate(-90 0 1019)" fill="#3A3A3A"/>
<rect y="1026" width="0.999996" height="20" transform="rotate(-90 0 1026)" fill="#3A3A3A"/>
<rect y="1033" width="1" height="12" transform="rotate(-90 0 1033)" fill="#3A3A3A"/>
<rect y="1039" width="0.999996" height="53" transform="rotate(-90 0 1039)" fill="#3A3A3A"/>
<rect y="1046" width="1" height="12" transform="rotate(-90 0 1046)" fill="#3A3A3A"/>
<rect y="1053" width="1" height="20" transform="rotate(-90 0 1053)" fill="#3A3A3A"/>
<rect y="1060" width="1" height="12" transform="rotate(-90 0 1060)" fill="#3A3A3A"/>
<rect y="1066" width="1" height="35" transform="rotate(-90 0 1066)" fill="#3A3A3A"/>
<rect y="1073" width="1" height="12" transform="rotate(-90 0 1073)" fill="#3A3A3A"/>
<rect y="1080" width="1" height="20" transform="rotate(-90 0 1080)" fill="#3A3A3A"/>
<rect y="1087" width="1" height="12" transform="rotate(-90 0 1087)" fill="#3A3A3A"/>
<rect y="876" width="0.999992" height="53" transform="rotate(-90 0 876)" fill="#3A3A3A"/>
<rect y="883" width="1" height="12" transform="rotate(-90 0 883)" fill="#3A3A3A"/>
<rect y="890" width="1" height="20" transform="rotate(-90 0 890)" fill="#3A3A3A"/>
<rect y="897" width="1" height="12" transform="rotate(-90 0 897)" fill="#3A3A3A"/>
<rect y="903" width="1" height="35" transform="rotate(-90 0 903)" fill="#3A3A3A"/>
<rect y="910" width="1.00001" height="12" transform="rotate(-90 0 910)" fill="#3A3A3A"/>
<rect y="917" width="0.999996" height="20" transform="rotate(-90 0 917)" fill="#3A3A3A"/>
<rect y="924" width="1" height="12" transform="rotate(-90 0 924)" fill="#3A3A3A"/>
<rect y="930" width="0.999996" height="53" transform="rotate(-90 0 930)" fill="#3A3A3A"/>
<rect y="937" width="1" height="12" transform="rotate(-90 0 937)" fill="#3A3A3A"/>
<rect y="944" width="1" height="20" transform="rotate(-90 0 944)" fill="#3A3A3A"/>
<rect y="951" width="1" height="12" transform="rotate(-90 0 951)" fill="#3A3A3A"/>
<rect y="957" width="1" height="35" transform="rotate(-90 0 957)" fill="#3A3A3A"/>
<rect y="964" width="1" height="12" transform="rotate(-90 0 964)" fill="#3A3A3A"/>
<rect y="971" width="1" height="20" transform="rotate(-90 0 971)" fill="#3A3A3A"/>
<rect y="978" width="1" height="12" transform="rotate(-90 0 978)" fill="#3A3A3A"/>
<rect y="767" width="0.999992" height="53" transform="rotate(-90 0 767)" fill="#3A3A3A"/>
<rect y="774" width="1" height="12" transform="rotate(-90 0 774)" fill="#3A3A3A"/>
<rect y="781" width="1" height="20" transform="rotate(-90 0 781)" fill="#3A3A3A"/>
<rect y="788" width="1" height="12" transform="rotate(-90 0 788)" fill="#3A3A3A"/>
<rect y="794" width="1" height="35" transform="rotate(-90 0 794)" fill="#3A3A3A"/>
<rect y="801" width="1.00001" height="12" transform="rotate(-90 0 801)" fill="#3A3A3A"/>
<rect y="808" width="0.999996" height="20" transform="rotate(-90 0 808)" fill="#3A3A3A"/>
<rect y="815" width="1" height="12" transform="rotate(-90 0 815)" fill="#3A3A3A"/>
<rect y="821" width="0.999996" height="53" transform="rotate(-90 0 821)" fill="#3A3A3A"/>
<rect y="828" width="1" height="12" transform="rotate(-90 0 828)" fill="#3A3A3A"/>
<rect y="835" width="1" height="20" transform="rotate(-90 0 835)" fill="#3A3A3A"/>
<rect y="842" width="1" height="12" transform="rotate(-90 0 842)" fill="#3A3A3A"/>
<rect y="848" width="1" height="35" transform="rotate(-90 0 848)" fill="#3A3A3A"/>
<rect y="855" width="1" height="12" transform="rotate(-90 0 855)" fill="#3A3A3A"/>
<rect y="862" width="1" height="20" transform="rotate(-90 0 862)" fill="#3A3A3A"/>
<rect y="869" width="1" height="12" transform="rotate(-90 0 869)" fill="#3A3A3A"/>
<rect y="658" width="0.999992" height="53" transform="rotate(-90 0 658)" fill="#3A3A3A"/>
<rect y="665" width="1" height="12" transform="rotate(-90 0 665)" fill="#3A3A3A"/>
<rect y="672" width="1" height="20" transform="rotate(-90 0 672)" fill="#3A3A3A"/>
<rect y="679" width="1" height="12" transform="rotate(-90 0 679)" fill="#3A3A3A"/>
<rect y="685" width="1" height="35" transform="rotate(-90 0 685)" fill="#3A3A3A"/>
<rect y="692" width="1.00001" height="12" transform="rotate(-90 0 692)" fill="#3A3A3A"/>
<rect y="699" width="0.999996" height="20" transform="rotate(-90 0 699)" fill="#3A3A3A"/>
<rect y="706" width="1" height="12" transform="rotate(-90 0 706)" fill="#3A3A3A"/>
<rect y="712" width="0.999996" height="53" transform="rotate(-90 0 712)" fill="#3A3A3A"/>
<rect y="719" width="1" height="12" transform="rotate(-90 0 719)" fill="#3A3A3A"/>
<rect y="726" width="1" height="20" transform="rotate(-90 0 726)" fill="#3A3A3A"/>
<rect y="733" width="1" height="12" transform="rotate(-90 0 733)" fill="#3A3A3A"/>
<rect y="739" width="1" height="35" transform="rotate(-90 0 739)" fill="#3A3A3A"/>
<rect y="746" width="1" height="12" transform="rotate(-90 0 746)" fill="#3A3A3A"/>
<rect y="753" width="1" height="20" transform="rotate(-90 0 753)" fill="#3A3A3A"/>
<rect y="760" width="1" height="12" transform="rotate(-90 0 760)" fill="#3A3A3A"/>
<rect y="549" width="0.999992" height="53" transform="rotate(-90 0 549)" fill="#3A3A3A"/>
<rect y="556" width="1" height="12" transform="rotate(-90 0 556)" fill="#3A3A3A"/>
<rect y="563" width="1" height="20" transform="rotate(-90 0 563)" fill="#3A3A3A"/>
<rect y="570" width="1" height="12" transform="rotate(-90 0 570)" fill="#3A3A3A"/>
<rect y="576" width="1" height="35" transform="rotate(-90 0 576)" fill="#3A3A3A"/>
<rect y="583" width="1.00001" height="12" transform="rotate(-90 0 583)" fill="#3A3A3A"/>
<rect y="590" width="0.999996" height="20" transform="rotate(-90 0 590)" fill="#3A3A3A"/>
<rect y="597" width="1" height="12" transform="rotate(-90 0 597)" fill="#3A3A3A"/>
<rect y="603" width="0.999996" height="53" transform="rotate(-90 0 603)" fill="#3A3A3A"/>
<rect y="610" width="1" height="12" transform="rotate(-90 0 610)" fill="#3A3A3A"/>
<rect y="617" width="1" height="20" transform="rotate(-90 0 617)" fill="#3A3A3A"/>
<rect y="624" width="1" height="12" transform="rotate(-90 0 624)" fill="#3A3A3A"/>
<rect y="630" width="1" height="35" transform="rotate(-90 0 630)" fill="#3A3A3A"/>
<rect y="637" width="1" height="12" transform="rotate(-90 0 637)" fill="#3A3A3A"/>
<rect y="644" width="1" height="20" transform="rotate(-90 0 644)" fill="#3A3A3A"/>
<rect y="651" width="1" height="12" transform="rotate(-90 0 651)" fill="#3A3A3A"/>
<rect y="440" width="0.999992" height="53" transform="rotate(-90 0 440)" fill="#3A3A3A"/>
<rect y="447" width="1" height="12" transform="rotate(-90 0 447)" fill="#3A3A3A"/>
<rect y="454" width="1" height="20" transform="rotate(-90 0 454)" fill="#3A3A3A"/>
<rect y="461" width="1" height="12" transform="rotate(-90 0 461)" fill="#3A3A3A"/>
<rect y="467" width="1" height="35" transform="rotate(-90 0 467)" fill="#3A3A3A"/>
<rect y="474" width="1.00001" height="12" transform="rotate(-90 0 474)" fill="#3A3A3A"/>
<rect y="481" width="0.999996" height="20" transform="rotate(-90 0 481)" fill="#3A3A3A"/>
<rect y="488" width="1" height="12" transform="rotate(-90 0 488)" fill="#3A3A3A"/>
<rect y="494" width="0.999996" height="53" transform="rotate(-90 0 494)" fill="#3A3A3A"/>
<rect y="501" width="1" height="12" transform="rotate(-90 0 501)" fill="#3A3A3A"/>
<rect y="508" width="1" height="20" transform="rotate(-90 0 508)" fill="#3A3A3A"/>
<rect y="515" width="1" height="12" transform="rotate(-90 0 515)" fill="#3A3A3A"/>
<rect y="521" width="1" height="35" transform="rotate(-90 0 521)" fill="#3A3A3A"/>
<rect y="528" width="1" height="12" transform="rotate(-90 0 528)" fill="#3A3A3A"/>
<rect y="535" width="1" height="20" transform="rotate(-90 0 535)" fill="#3A3A3A"/>
<rect y="542" width="1" height="12" transform="rotate(-90 0 542)" fill="#3A3A3A"/>
<rect y="331" width="0.999992" height="53" transform="rotate(-90 0 331)" fill="#3A3A3A"/>
<rect y="338" width="1" height="12" transform="rotate(-90 0 338)" fill="#3A3A3A"/>
<rect y="345" width="1" height="20" transform="rotate(-90 0 345)" fill="#3A3A3A"/>
<rect y="352" width="1" height="12" transform="rotate(-90 0 352)" fill="#3A3A3A"/>
<rect y="358" width="1" height="35" transform="rotate(-90 0 358)" fill="#3A3A3A"/>
<rect y="365" width="1.00001" height="12" transform="rotate(-90 0 365)" fill="#3A3A3A"/>
<rect y="372" width="0.999996" height="20" transform="rotate(-90 0 372)" fill="#3A3A3A"/>
<rect y="379" width="1" height="12" transform="rotate(-90 0 379)" fill="#3A3A3A"/>
<rect y="385" width="0.999996" height="53" transform="rotate(-90 0 385)" fill="#3A3A3A"/>
<rect y="392" width="1" height="12" transform="rotate(-90 0 392)" fill="#3A3A3A"/>
<rect y="399" width="1" height="20" transform="rotate(-90 0 399)" fill="#3A3A3A"/>
<rect y="406" width="1" height="12" transform="rotate(-90 0 406)" fill="#3A3A3A"/>
<rect y="412" width="1" height="35" transform="rotate(-90 0 412)" fill="#3A3A3A"/>
<rect y="419" width="1" height="12" transform="rotate(-90 0 419)" fill="#3A3A3A"/>
<rect y="426" width="1" height="20" transform="rotate(-90 0 426)" fill="#3A3A3A"/>
<rect y="433" width="1" height="12" transform="rotate(-90 0 433)" fill="#3A3A3A"/>
<rect y="222" width="0.999992" height="53" transform="rotate(-90 0 222)" fill="#3A3A3A"/>
<rect y="229" width="1" height="12" transform="rotate(-90 0 229)" fill="#3A3A3A"/>
<rect y="236" width="1" height="20" transform="rotate(-90 0 236)" fill="#3A3A3A"/>
<rect y="243" width="1" height="12" transform="rotate(-90 0 243)" fill="#3A3A3A"/>
<rect y="249" width="1" height="35" transform="rotate(-90 0 249)" fill="#3A3A3A"/>
<rect y="256" width="1.00001" height="12" transform="rotate(-90 0 256)" fill="#3A3A3A"/>
<rect y="263" width="0.999996" height="20" transform="rotate(-90 0 263)" fill="#3A3A3A"/>
<rect y="270" width="1" height="12" transform="rotate(-90 0 270)" fill="#3A3A3A"/>
<rect y="276" width="0.999996" height="53" transform="rotate(-90 0 276)" fill="#3A3A3A"/>
<rect y="283" width="1" height="12" transform="rotate(-90 0 283)" fill="#3A3A3A"/>
<rect y="290" width="1" height="20" transform="rotate(-90 0 290)" fill="#3A3A3A"/>
<rect y="297" width="1" height="12" transform="rotate(-90 0 297)" fill="#3A3A3A"/>
<rect y="303" width="1" height="35" transform="rotate(-90 0 303)" fill="#3A3A3A"/>
<rect y="310" width="1" height="12" transform="rotate(-90 0 310)" fill="#3A3A3A"/>
<rect y="317" width="1" height="20" transform="rotate(-90 0 317)" fill="#3A3A3A"/>
<rect y="324" width="1" height="12" transform="rotate(-90 0 324)" fill="#3A3A3A"/>
<rect y="113" width="0.999992" height="53" transform="rotate(-90 0 113)" fill="#3A3A3A"/>
<rect y="120" width="1" height="12" transform="rotate(-90 0 120)" fill="#3A3A3A"/>
<rect y="127" width="1" height="20" transform="rotate(-90 0 127)" fill="#3A3A3A"/>
<rect y="134" width="1" height="12" transform="rotate(-90 0 134)" fill="#3A3A3A"/>
<rect y="140" width="1" height="35" transform="rotate(-90 0 140)" fill="#3A3A3A"/>
<rect y="147" width="1.00001" height="12" transform="rotate(-90 0 147)" fill="#3A3A3A"/>
<rect y="154" width="0.999996" height="20" transform="rotate(-90 0 154)" fill="#3A3A3A"/>
<rect y="161" width="1" height="12" transform="rotate(-90 0 161)" fill="#3A3A3A"/>
<rect y="167" width="0.999996" height="53" transform="rotate(-90 0 167)" fill="#3A3A3A"/>
<rect y="174" width="1" height="12" transform="rotate(-90 0 174)" fill="#3A3A3A"/>
<rect y="181" width="1" height="20" transform="rotate(-90 0 181)" fill="#3A3A3A"/>
<rect y="188" width="1" height="12" transform="rotate(-90 0 188)" fill="#3A3A3A"/>
<rect y="194" width="1" height="35" transform="rotate(-90 0 194)" fill="#3A3A3A"/>
<rect y="201" width="1" height="12" transform="rotate(-90 0 201)" fill="#3A3A3A"/>
<rect y="208" width="1" height="20" transform="rotate(-90 0 208)" fill="#3A3A3A"/>
<rect y="215" width="1" height="12" transform="rotate(-90 0 215)" fill="#3A3A3A"/>
<rect y="4" width="0.999992" height="53" transform="rotate(-90 0 4)" fill="#3A3A3A"/>
<rect y="11" width="1" height="12" transform="rotate(-90 0 11)" fill="#3A3A3A"/>
<rect y="18" width="1" height="20" transform="rotate(-90 0 18)" fill="#3A3A3A"/>
<rect y="25" width="1" height="12" transform="rotate(-90 0 25)" fill="#3A3A3A"/>
<rect y="31" width="1" height="35" transform="rotate(-90 0 31)" fill="#3A3A3A"/>
<rect y="38" width="1.00001" height="12" transform="rotate(-90 0 38)" fill="#3A3A3A"/>
<rect y="45" width="0.999996" height="20" transform="rotate(-90 0 45)" fill="#3A3A3A"/>
<rect y="52" width="1" height="12" transform="rotate(-90 0 52)" fill="#3A3A3A"/>
<rect y="58" width="0.999996" height="53" transform="rotate(-90 0 58)" fill="#3A3A3A"/>
<rect y="65" width="1" height="12" transform="rotate(-90 0 65)" fill="#3A3A3A"/>
<rect y="72" width="1" height="20" transform="rotate(-90 0 72)" fill="#3A3A3A"/>
<rect y="79" width="1" height="12" transform="rotate(-90 0 79)" fill="#3A3A3A"/>
<rect y="85" width="1" height="35" transform="rotate(-90 0 85)" fill="#3A3A3A"/>
<rect y="92" width="1" height="12" transform="rotate(-90 0 92)" fill="#3A3A3A"/>
<rect y="99" width="1" height="20" transform="rotate(-90 0 99)" fill="#3A3A3A"/>
<rect y="106" width="1" height="12" transform="rotate(-90 0 106)" fill="#3A3A3A"/>
</svg>
