<svg width="36" height="1316" viewBox="0 0 36 1316" fill="none" xmlns="http://www.w3.org/2000/svg">
<g clip-path="url(#clip0_6248_38847)">
<rect width="36" height="1311" transform="matrix(-1 0 0 1 36 0)" fill="#181818"/>
<path d="M36 1304V1305H24V1304H36Z" fill="#3A3A3A"/>
<path d="M36 10V11H24V10H36Z" fill="#3A3A3A"/>
<path d="M36 171V172H24V171H36Z" fill="#3A3A3A"/>
<path d="M36 332V333H24V332H36Z" fill="#3A3A3A"/>
<path d="M36 493V494H24V493H36Z" fill="#3A3A3A"/>
<path d="M35 654V655H23V654H35Z" fill="#3A3A3A"/>
<path d="M35 815V816H23V815H35Z" fill="#3A3A3A"/>
<path d="M35 976V977H23V976H35Z" fill="#3A3A3A"/>
<path d="M35 1137V1138H23V1137H35Z" fill="#3A3A3A"/>
<path d="M35 0L36 0L36 1311H35L35 0Z" fill="#3A3A3A"/>
<path d="M1 0L2 0L2 1311H1L1 0Z" fill="#3A3A3A"/>
<path d="M20.27 19.1453C19.59 18.2986 19.0333 17.6353 18.6 17.1553C18.16 16.6753 17.7033 16.2719 17.23 15.9453C16.75 15.6119 16.28 15.4453 15.82 15.4453C15.3867 15.4453 15.0467 15.5519 14.8 15.7653C14.5467 15.9719 14.42 16.3086 14.42 16.7753C14.42 17.2286 14.5633 17.5819 14.85 17.8353C15.13 18.0819 15.5067 18.2153 15.98 18.2353V19.1153C15.2333 19.0886 14.6567 18.8619 14.25 18.4353C13.8433 18.0086 13.64 17.4586 13.64 16.7853C13.64 16.0986 13.83 15.5553 14.21 15.1553C14.59 14.7486 15.1133 14.5453 15.78 14.5453C16.3333 14.5453 16.8733 14.7119 17.4 15.0453C17.92 15.3719 18.38 15.7453 18.78 16.1653C19.1733 16.5853 19.6333 17.1219 20.16 17.7753V14.3353H20.92V19.1453H20.27ZM17.31 13.2833C16.1633 13.2833 15.27 13.0967 14.63 12.7233C13.9833 12.35 13.66 11.6967 13.66 10.7633C13.66 9.83665 13.9833 9.18665 14.63 8.81332C15.27 8.43999 16.1633 8.25332 17.31 8.25332C18.4767 8.25332 19.3833 8.43999 20.03 8.81332C20.6767 9.18665 21 9.83665 21 10.7633C21 11.6967 20.6767 12.35 20.03 12.7233C19.3833 13.0967 18.4767 13.2833 17.31 13.2833ZM17.31 9.15332C16.73 9.15332 16.24 9.19332 15.84 9.27332C15.4333 9.34665 15.1067 9.50332 14.86 9.74332C14.6133 9.97665 14.49 10.3167 14.49 10.7633C14.49 11.2167 14.6133 11.5633 14.86 11.8033C15.1067 12.0367 15.4333 12.1933 15.84 12.2733C16.24 12.3467 16.73 12.3833 17.31 12.3833C17.91 12.3833 18.4133 12.3467 18.82 12.2733C19.2267 12.1933 19.5533 12.0367 19.8 11.8033C20.0467 11.5633 20.17 11.2167 20.17 10.7633C20.17 10.3167 20.0467 9.97665 19.8 9.74332C19.5533 9.50332 19.2267 9.34665 18.82 9.27332C18.4133 9.19332 17.91 9.15332 17.31 9.15332ZM17.31 7.00402C16.1633 7.00402 15.27 6.81736 14.63 6.44402C13.9833 6.07069 13.66 5.41736 13.66 4.48402C13.66 3.55736 13.9833 2.90736 14.63 2.53402C15.27 2.16069 16.1633 1.97402 17.31 1.97402C18.4767 1.97402 19.3833 2.16069 20.03 2.53402C20.6767 2.90736 21 3.55736 21 4.48402C21 5.41736 20.6767 6.07069 20.03 6.44402C19.3833 6.81736 18.4767 7.00402 17.31 7.00402ZM17.31 2.87402C16.73 2.87402 16.24 2.91402 15.84 2.99402C15.4333 3.06736 15.1067 3.22402 14.86 3.46402C14.6133 3.69736 14.49 4.03736 14.49 4.48402C14.49 4.93736 14.6133 5.28402 14.86 5.52402C15.1067 5.75736 15.4333 5.91402 15.84 5.99402C16.24 6.06736 16.73 6.10402 17.31 6.10402C17.91 6.10402 18.4133 6.06736 18.82 5.99402C19.2267 5.91402 19.5533 5.75736 19.8 5.52402C20.0467 5.28402 20.17 4.93736 20.17 4.48402C20.17 4.03736 20.0467 3.69736 19.8 3.46402C19.5533 3.22402 19.2267 3.06736 18.82 2.99402C18.4133 2.91402 17.91 2.87402 17.31 2.87402Z" fill="#3A3A3A"/>
<path d="M14.56 499.689V503.199H16.84C16.6267 503.046 16.4533 502.819 16.32 502.519C16.18 502.219 16.11 501.896 16.11 501.549C16.11 500.996 16.2267 500.546 16.46 500.199C16.6867 499.852 16.9833 499.606 17.35 499.459C17.71 499.306 18.0933 499.229 18.5 499.229C18.98 499.229 19.41 499.319 19.79 499.499C20.17 499.679 20.47 499.956 20.69 500.329C20.91 500.696 21.02 501.152 21.02 501.699C21.02 502.399 20.84 502.966 20.48 503.399C20.12 503.832 19.64 504.096 19.04 504.189V503.299C19.42 503.212 19.7167 503.029 19.93 502.749C20.1433 502.469 20.25 502.116 20.25 501.689C20.25 501.162 20.0933 500.766 19.78 500.499C19.46 500.232 19.04 500.099 18.52 500.099C18 500.099 17.6 500.232 17.32 500.499C17.0333 500.766 16.89 501.159 16.89 501.679C16.89 502.032 16.9767 502.342 17.15 502.609C17.3167 502.869 17.5467 503.059 17.84 503.179V504.039H13.76V499.689H14.56ZM17.31 498.02C16.1633 498.02 15.27 497.833 14.63 497.46C13.9833 497.086 13.66 496.433 13.66 495.5C13.66 494.573 13.9833 493.923 14.63 493.55C15.27 493.176 16.1633 492.99 17.31 492.99C18.4767 492.99 19.3833 493.176 20.03 493.55C20.6767 493.923 21 494.573 21 495.5C21 496.433 20.6767 497.086 20.03 497.46C19.3833 497.833 18.4767 498.02 17.31 498.02ZM17.31 493.89C16.73 493.89 16.24 493.93 15.84 494.01C15.4333 494.083 15.1067 494.24 14.86 494.48C14.6133 494.713 14.49 495.053 14.49 495.5C14.49 495.953 14.6133 496.3 14.86 496.54C15.1067 496.773 15.4333 496.93 15.84 497.01C16.24 497.083 16.73 497.12 17.31 497.12C17.91 497.12 18.4133 497.083 18.82 497.01C19.2267 496.93 19.5533 496.773 19.8 496.54C20.0467 496.3 20.17 495.953 20.17 495.5C20.17 495.053 20.0467 494.713 19.8 494.48C19.5533 494.24 19.2267 494.083 18.82 494.01C18.4133 493.93 17.91 493.89 17.31 493.89ZM17.31 491.74C16.1633 491.74 15.27 491.554 14.63 491.18C13.9833 490.807 13.66 490.154 13.66 489.22C13.66 488.294 13.9833 487.644 14.63 487.27C15.27 486.897 16.1633 486.71 17.31 486.71C18.4767 486.71 19.3833 486.897 20.03 487.27C20.6767 487.644 21 488.294 21 489.22C21 490.154 20.6767 490.807 20.03 491.18C19.3833 491.554 18.4767 491.74 17.31 491.74ZM17.31 487.61C16.73 487.61 16.24 487.65 15.84 487.73C15.4333 487.804 15.1067 487.96 14.86 488.2C14.6133 488.434 14.49 488.774 14.49 489.22C14.49 489.674 14.6133 490.02 14.86 490.26C15.1067 490.494 15.4333 490.65 15.84 490.73C16.24 490.804 16.73 490.84 17.31 490.84C17.91 490.84 18.4133 490.804 18.82 490.73C19.2267 490.65 19.5533 490.494 19.8 490.26C20.0467 490.02 20.17 489.674 20.17 489.22C20.17 488.774 20.0467 488.434 19.8 488.2C19.5533 487.96 19.2267 487.804 18.82 487.73C18.4133 487.65 17.91 487.61 17.31 487.61Z" fill="#3A3A3A"/>
<path d="M15.59 181.124C14.9767 181.077 14.4967 180.84 14.15 180.414C13.8033 179.987 13.63 179.434 13.63 178.754C13.63 178.3 13.7133 177.91 13.88 177.584C14.04 177.25 14.26 177 14.54 176.834C14.82 176.66 15.1367 176.574 15.49 176.574C15.9033 176.574 16.26 176.694 16.56 176.934C16.86 177.167 17.0533 177.474 17.14 177.854H17.19C17.2967 177.42 17.5067 177.077 17.82 176.824C18.1333 176.57 18.5433 176.444 19.05 176.444C19.43 176.444 19.7733 176.53 20.08 176.704C20.38 176.877 20.6167 177.137 20.79 177.484C20.9633 177.83 21.05 178.247 21.05 178.734C21.05 179.44 20.8667 180.02 20.5 180.474C20.1267 180.927 19.6 181.18 18.92 181.234V180.354C19.32 180.307 19.6467 180.144 19.9 179.864C20.1533 179.584 20.28 179.21 20.28 178.744C20.28 178.277 20.16 177.924 19.92 177.684C19.6733 177.437 19.3567 177.314 18.97 177.314C18.47 177.314 18.11 177.48 17.89 177.814C17.67 178.147 17.56 178.65 17.56 179.324V179.554H16.8V179.314C16.7933 178.7 16.6933 178.237 16.5 177.924C16.3 177.61 15.9933 177.454 15.58 177.454C15.2267 177.454 14.9433 177.57 14.73 177.804C14.5167 178.03 14.41 178.357 14.41 178.784C14.41 179.197 14.5167 179.53 14.73 179.784C14.9433 180.037 15.23 180.187 15.59 180.234V181.124ZM17.31 175.215C16.1633 175.215 15.27 175.028 14.63 174.655C13.9833 174.282 13.66 173.628 13.66 172.695C13.66 171.768 13.9833 171.118 14.63 170.745C15.27 170.372 16.1633 170.185 17.31 170.185C18.4767 170.185 19.3833 170.372 20.03 170.745C20.6767 171.118 21 171.768 21 172.695C21 173.628 20.6767 174.282 20.03 174.655C19.3833 175.028 18.4767 175.215 17.31 175.215ZM17.31 171.085C16.73 171.085 16.24 171.125 15.84 171.205C15.4333 171.278 15.1067 171.435 14.86 171.675C14.6133 171.908 14.49 172.248 14.49 172.695C14.49 173.148 14.6133 173.495 14.86 173.735C15.1067 173.968 15.4333 174.125 15.84 174.205C16.24 174.278 16.73 174.315 17.31 174.315C17.91 174.315 18.4133 174.278 18.82 174.205C19.2267 174.125 19.5533 173.968 19.8 173.735C20.0467 173.495 20.17 173.148 20.17 172.695C20.17 172.248 20.0467 171.908 19.8 171.675C19.5533 171.435 19.2267 171.278 18.82 171.205C18.4133 171.125 17.91 171.085 17.31 171.085ZM17.31 168.936C16.1633 168.936 15.27 168.749 14.63 168.376C13.9833 168.002 13.66 167.349 13.66 166.416C13.66 165.489 13.9833 164.839 14.63 164.466C15.27 164.092 16.1633 163.906 17.31 163.906C18.4767 163.906 19.3833 164.092 20.03 164.466C20.6767 164.839 21 165.489 21 166.416C21 167.349 20.6767 168.002 20.03 168.376C19.3833 168.749 18.4767 168.936 17.31 168.936ZM17.31 164.806C16.73 164.806 16.24 164.846 15.84 164.926C15.4333 164.999 15.1067 165.156 14.86 165.396C14.6133 165.629 14.49 165.969 14.49 166.416C14.49 166.869 14.6133 167.216 14.86 167.456C15.1067 167.689 15.4333 167.846 15.84 167.926C16.24 167.999 16.73 168.036 17.31 168.036C17.91 168.036 18.4133 167.999 18.82 167.926C19.2267 167.846 19.5533 167.689 19.8 167.456C20.0467 167.216 20.17 166.869 20.17 166.416C20.17 165.969 20.0467 165.629 19.8 165.396C19.5533 165.156 19.2267 164.999 18.82 164.926C18.4133 164.846 17.91 164.806 17.31 164.806Z" fill="#3A3A3A"/>
<path d="M15.49 662.303C14.75 662.45 14.38 662.906 14.38 663.673C14.38 664.266 14.61 664.71 15.07 665.003C15.5233 665.296 16.2733 665.44 17.32 665.433C16.9733 665.28 16.7033 665.026 16.51 664.673C16.31 664.313 16.21 663.913 16.21 663.473C16.21 662.786 16.4233 662.24 16.85 661.833C17.2767 661.42 17.8667 661.213 18.62 661.213C19.0733 661.213 19.48 661.303 19.84 661.483C20.2 661.656 20.4867 661.923 20.7 662.283C20.9133 662.636 21.02 663.066 21.02 663.573C21.02 664.26 20.8667 664.796 20.56 665.183C20.2533 665.57 19.83 665.84 19.29 665.993C18.75 666.146 18.0833 666.223 17.29 666.223C14.8433 666.223 13.62 665.37 13.62 663.663C13.62 663.01 13.7967 662.496 14.15 662.123C14.5033 661.75 14.95 661.53 15.49 661.463V662.303ZM16.98 663.663C16.98 663.95 17.04 664.22 17.16 664.473C17.2733 664.726 17.45 664.933 17.69 665.093C17.9233 665.246 18.21 665.323 18.55 665.323C19.0567 665.323 19.47 665.176 19.79 664.883C20.1033 664.59 20.26 664.17 20.26 663.623C20.26 663.156 20.1167 662.786 19.83 662.513C19.5367 662.233 19.1433 662.093 18.65 662.093C18.13 662.093 17.7233 662.226 17.43 662.493C17.13 662.76 16.98 663.15 16.98 663.663ZM17.31 659.985C16.1633 659.985 15.27 659.799 14.63 659.425C13.9833 659.052 13.66 658.399 13.66 657.465C13.66 656.539 13.9833 655.889 14.63 655.515C15.27 655.142 16.1633 654.955 17.31 654.955C18.4767 654.955 19.3833 655.142 20.03 655.515C20.6767 655.889 21 656.539 21 657.465C21 658.399 20.6767 659.052 20.03 659.425C19.3833 659.799 18.4767 659.985 17.31 659.985ZM17.31 655.855C16.73 655.855 16.24 655.895 15.84 655.975C15.4333 656.049 15.1067 656.205 14.86 656.445C14.6133 656.679 14.49 657.019 14.49 657.465C14.49 657.919 14.6133 658.265 14.86 658.505C15.1067 658.739 15.4333 658.895 15.84 658.975C16.24 659.049 16.73 659.085 17.31 659.085C17.91 659.085 18.4133 659.049 18.82 658.975C19.2267 658.895 19.5533 658.739 19.8 658.505C20.0467 658.265 20.17 657.919 20.17 657.465C20.17 657.019 20.0467 656.679 19.8 656.445C19.5533 656.205 19.2267 656.049 18.82 655.975C18.4133 655.895 17.91 655.855 17.31 655.855ZM17.31 653.706C16.1633 653.706 15.27 653.52 14.63 653.146C13.9833 652.773 13.66 652.12 13.66 651.186C13.66 650.26 13.9833 649.61 14.63 649.236C15.27 648.863 16.1633 648.676 17.31 648.676C18.4767 648.676 19.3833 648.863 20.03 649.236C20.6767 649.61 21 650.26 21 651.186C21 652.12 20.6767 652.773 20.03 653.146C19.3833 653.52 18.4767 653.706 17.31 653.706ZM17.31 649.576C16.73 649.576 16.24 649.616 15.84 649.696C15.4333 649.77 15.1067 649.926 14.86 650.166C14.6133 650.4 14.49 650.74 14.49 651.186C14.49 651.64 14.6133 651.986 14.86 652.226C15.1067 652.46 15.4333 652.616 15.84 652.696C16.24 652.77 16.73 652.806 17.31 652.806C17.91 652.806 18.4133 652.77 18.82 652.696C19.2267 652.616 19.5533 652.46 19.8 652.226C20.0467 651.986 20.17 651.64 20.17 651.186C20.17 650.74 20.0467 650.4 19.8 650.166C19.5533 649.926 19.2267 649.77 18.82 649.696C18.4133 649.616 17.91 649.576 17.31 649.576Z" fill="#3A3A3A"/>
<path d="M19.39 341.524H18.7L13.84 338.014V336.924H18.6V335.924H19.39V336.924H21V337.824H19.39V341.524ZM14.79 337.784L18.6 340.474V337.784H14.79ZM17.31 335.015C16.1633 335.015 15.27 334.828 14.63 334.455C13.9833 334.081 13.66 333.428 13.66 332.495C13.66 331.568 13.9833 330.918 14.63 330.545C15.27 330.171 16.1633 329.985 17.31 329.985C18.4767 329.985 19.3833 330.171 20.03 330.545C20.6767 330.918 21 331.568 21 332.495C21 333.428 20.6767 334.081 20.03 334.455C19.3833 334.828 18.4767 335.015 17.31 335.015ZM17.31 330.885C16.73 330.885 16.24 330.925 15.84 331.005C15.4333 331.078 15.1067 331.235 14.86 331.475C14.6133 331.708 14.49 332.048 14.49 332.495C14.49 332.948 14.6133 333.295 14.86 333.535C15.1067 333.768 15.4333 333.925 15.84 334.005C16.24 334.078 16.73 334.115 17.31 334.115C17.91 334.115 18.4133 334.078 18.82 334.005C19.2267 333.925 19.5533 333.768 19.8 333.535C20.0467 333.295 20.17 332.948 20.17 332.495C20.17 332.048 20.0467 331.708 19.8 331.475C19.5533 331.235 19.2267 331.078 18.82 331.005C18.4133 330.925 17.91 330.885 17.31 330.885ZM17.31 328.735C16.1633 328.735 15.27 328.549 14.63 328.175C13.9833 327.802 13.66 327.149 13.66 326.215C13.66 325.289 13.9833 324.639 14.63 324.265C15.27 323.892 16.1633 323.705 17.31 323.705C18.4767 323.705 19.3833 323.892 20.03 324.265C20.6767 324.639 21 325.289 21 326.215C21 327.149 20.6767 327.802 20.03 328.175C19.3833 328.549 18.4767 328.735 17.31 328.735ZM17.31 324.605C16.73 324.605 16.24 324.645 15.84 324.725C15.4333 324.799 15.1067 324.955 14.86 325.195C14.6133 325.429 14.49 325.769 14.49 326.215C14.49 326.669 14.6133 327.015 14.86 327.255C15.1067 327.489 15.4333 327.645 15.84 327.725C16.24 327.799 16.73 327.835 17.31 327.835C17.91 327.835 18.4133 327.799 18.82 327.725C19.2267 327.645 19.5533 327.489 19.8 327.255C20.0467 327.015 20.17 326.669 20.17 326.215C20.17 325.769 20.0467 325.429 19.8 325.195C19.5533 324.955 19.2267 324.799 18.82 324.725C18.4133 324.645 17.91 324.605 17.31 324.605Z" fill="#3A3A3A"/>
<path d="M14.48 821.439L21 824.219V825.139L14.57 822.319V826.179H13.79V821.439H14.48ZM17.31 820.43C16.1633 820.43 15.27 820.243 14.63 819.87C13.9833 819.496 13.66 818.843 13.66 817.91C13.66 816.983 13.9833 816.333 14.63 815.96C15.27 815.586 16.1633 815.4 17.31 815.4C18.4767 815.4 19.3833 815.586 20.03 815.96C20.6767 816.333 21 816.983 21 817.91C21 818.843 20.6767 819.496 20.03 819.87C19.3833 820.243 18.4767 820.43 17.31 820.43ZM17.31 816.3C16.73 816.3 16.24 816.34 15.84 816.42C15.4333 816.493 15.1067 816.65 14.86 816.89C14.6133 817.123 14.49 817.463 14.49 817.91C14.49 818.363 14.6133 818.71 14.86 818.95C15.1067 819.183 15.4333 819.34 15.84 819.42C16.24 819.493 16.73 819.53 17.31 819.53C17.91 819.53 18.4133 819.493 18.82 819.42C19.2267 819.34 19.5533 819.183 19.8 818.95C20.0467 818.71 20.17 818.363 20.17 817.91C20.17 817.463 20.0467 817.123 19.8 816.89C19.5533 816.65 19.2267 816.493 18.82 816.42C18.4133 816.34 17.91 816.3 17.31 816.3ZM17.31 814.151C16.1633 814.151 15.27 813.964 14.63 813.591C13.9833 813.217 13.66 812.564 13.66 811.631C13.66 810.704 13.9833 810.054 14.63 809.681C15.27 809.307 16.1633 809.121 17.31 809.121C18.4767 809.121 19.3833 809.307 20.03 809.681C20.6767 810.054 21 810.704 21 811.631C21 812.564 20.6767 813.217 20.03 813.591C19.3833 813.964 18.4767 814.151 17.31 814.151ZM17.31 810.021C16.73 810.021 16.24 810.061 15.84 810.141C15.4333 810.214 15.1067 810.371 14.86 810.611C14.6133 810.844 14.49 811.184 14.49 811.631C14.49 812.084 14.6133 812.431 14.86 812.671C15.1067 812.904 15.4333 813.061 15.84 813.141C16.24 813.214 16.73 813.251 17.31 813.251C17.91 813.251 18.4133 813.214 18.82 813.141C19.2267 813.061 19.5533 812.904 19.8 812.671C20.0467 812.431 20.17 812.084 20.17 811.631C20.17 811.184 20.0467 810.844 19.8 810.611C19.5533 810.371 19.2267 810.214 18.82 810.141C18.4133 810.061 17.91 810.021 17.31 810.021Z" fill="#3A3A3A"/>
<path d="M17.24 984.994C17.0933 985.367 16.88 985.654 16.6 985.854C16.32 986.054 15.98 986.154 15.58 986.154C15.22 986.154 14.8967 986.064 14.61 985.884C14.3167 985.704 14.0867 985.437 13.92 985.084C13.7467 984.724 13.66 984.29 13.66 983.784C13.66 983.277 13.7467 982.847 13.92 982.494C14.0867 982.134 14.3167 981.864 14.61 981.684C14.8967 981.497 15.22 981.404 15.58 981.404C15.9667 981.404 16.3067 981.507 16.6 981.714C16.8867 981.92 17.1 982.204 17.24 982.564C17.3667 982.15 17.59 981.824 17.91 981.584C18.2233 981.337 18.6033 981.214 19.05 981.214C19.4833 981.214 19.8633 981.32 20.19 981.534C20.51 981.747 20.76 982.05 20.94 982.444C21.1133 982.83 21.2 983.277 21.2 983.784C21.2 984.29 21.1133 984.737 20.94 985.124C20.76 985.504 20.51 985.8 20.19 986.014C19.8633 986.227 19.4833 986.334 19.05 986.334C18.6033 986.334 18.22 986.214 17.9 985.974C17.58 985.734 17.36 985.407 17.24 984.994ZM15.69 982.284C15.2833 982.284 14.97 982.417 14.75 982.684C14.53 982.95 14.42 983.317 14.42 983.784C14.42 984.244 14.53 984.607 14.75 984.874C14.97 985.14 15.2867 985.274 15.7 985.274C16.0733 985.274 16.3733 985.137 16.6 984.864C16.8267 984.584 16.94 984.224 16.94 983.784C16.94 983.337 16.8267 982.977 16.6 982.704C16.3667 982.424 16.0633 982.284 15.69 982.284ZM17.64 983.784C17.64 984.277 17.7567 984.68 17.99 984.994C18.2167 985.307 18.56 985.464 19.02 985.464C19.4467 985.464 19.79 985.314 20.05 985.014C20.31 984.707 20.44 984.297 20.44 983.784C20.44 983.27 20.31 982.864 20.05 982.564C19.79 982.264 19.4467 982.114 19.02 982.114C18.5733 982.114 18.2333 982.267 18 982.574C17.76 982.88 17.64 983.284 17.64 983.784ZM17.31 980.005C16.1633 980.005 15.27 979.818 14.63 979.445C13.9833 979.072 13.66 978.418 13.66 977.485C13.66 976.558 13.9833 975.908 14.63 975.535C15.27 975.162 16.1633 974.975 17.31 974.975C18.4767 974.975 19.3833 975.162 20.03 975.535C20.6767 975.908 21 976.558 21 977.485C21 978.418 20.6767 979.072 20.03 979.445C19.3833 979.818 18.4767 980.005 17.31 980.005ZM17.31 975.875C16.73 975.875 16.24 975.915 15.84 975.995C15.4333 976.068 15.1067 976.225 14.86 976.465C14.6133 976.698 14.49 977.038 14.49 977.485C14.49 977.938 14.6133 978.285 14.86 978.525C15.1067 978.758 15.4333 978.915 15.84 978.995C16.24 979.068 16.73 979.105 17.31 979.105C17.91 979.105 18.4133 979.068 18.82 978.995C19.2267 978.915 19.5533 978.758 19.8 978.525C20.0467 978.285 20.17 977.938 20.17 977.485C20.17 977.038 20.0467 976.698 19.8 976.465C19.5533 976.225 19.2267 976.068 18.82 975.995C18.4133 975.915 17.91 975.875 17.31 975.875ZM17.31 973.726C16.1633 973.726 15.27 973.539 14.63 973.166C13.9833 972.792 13.66 972.139 13.66 971.206C13.66 970.279 13.9833 969.629 14.63 969.256C15.27 968.882 16.1633 968.696 17.31 968.696C18.4767 968.696 19.3833 968.882 20.03 969.256C20.6767 969.629 21 970.279 21 971.206C21 972.139 20.6767 972.792 20.03 973.166C19.3833 973.539 18.4767 973.726 17.31 973.726ZM17.31 969.596C16.73 969.596 16.24 969.636 15.84 969.716C15.4333 969.789 15.1067 969.946 14.86 970.186C14.6133 970.419 14.49 970.759 14.49 971.206C14.49 971.659 14.6133 972.006 14.86 972.246C15.1067 972.479 15.4333 972.636 15.84 972.716C16.24 972.789 16.73 972.826 17.31 972.826C17.91 972.826 18.4133 972.789 18.82 972.716C19.2267 972.636 19.5533 972.479 19.8 972.246C20.0467 972.006 20.17 971.659 20.17 971.206C20.17 970.759 20.0467 970.419 19.8 970.186C19.5533 969.946 19.2267 969.789 18.82 969.716C18.4133 969.636 17.91 969.596 17.31 969.596Z" fill="#3A3A3A"/>
</g>
<path d="M23.9543 989.114C23.7563 989.618 23.4684 990.005 23.0904 990.275C22.7125 990.545 22.2536 990.68 21.7137 990.68C21.2278 990.68 20.7914 990.559 20.4044 990.316C20.0085 990.073 19.6981 989.713 19.4731 989.236C19.2392 988.75 19.1222 988.165 19.1222 987.481C19.1222 986.797 19.2392 986.217 19.4731 985.74C19.6981 985.254 20.0085 984.89 20.4044 984.647C20.7914 984.395 21.2278 984.269 21.7137 984.269C22.2356 984.269 22.6945 984.408 23.0904 984.687C23.4774 984.966 23.7653 985.349 23.9543 985.835C24.1252 985.277 24.4267 984.836 24.8586 984.512C25.2815 984.179 25.7944 984.012 26.3973 984.012C26.9822 984.012 27.4951 984.156 27.936 984.444C28.3679 984.732 28.7054 985.142 28.9483 985.673C29.1823 986.194 29.2992 986.797 29.2992 987.481C29.2992 988.165 29.1823 988.768 28.9483 989.29C28.7054 989.803 28.3679 990.203 27.936 990.491C27.4951 990.779 26.9822 990.923 26.3973 990.923C25.7944 990.923 25.277 990.761 24.8451 990.437C24.4132 990.113 24.1162 989.672 23.9543 989.114ZM21.8622 985.457C21.3133 985.457 20.8903 985.637 20.5934 985.997C20.2965 986.356 20.148 986.851 20.148 987.481C20.148 988.102 20.2965 988.593 20.5934 988.952C20.8903 989.312 21.3178 989.492 21.8757 989.492C22.3796 989.492 22.7845 989.308 23.0904 988.939C23.3964 988.561 23.5493 988.075 23.5493 987.481C23.5493 986.878 23.3964 986.392 23.0904 986.024C22.7755 985.646 22.3661 985.457 21.8622 985.457ZM24.4942 987.481C24.4942 988.147 24.6516 988.692 24.9666 989.114C25.2725 989.537 25.7359 989.749 26.3568 989.749C26.9327 989.749 27.3961 989.546 27.747 989.141C28.098 988.728 28.2734 988.174 28.2734 987.481C28.2734 986.788 28.098 986.239 27.747 985.835C27.3961 985.43 26.9327 985.227 26.3568 985.227C25.7539 985.227 25.295 985.434 24.9801 985.848C24.6561 986.262 24.4942 986.806 24.4942 987.481ZM24.0487 982.381C22.501 982.381 21.2953 982.129 20.4314 981.625C19.5586 981.121 19.1222 980.24 19.1222 978.98C19.1222 977.729 19.5586 976.852 20.4314 976.348C21.2953 975.844 22.501 975.592 24.0487 975.592C25.6234 975.592 26.8472 975.844 27.72 976.348C28.5929 976.852 29.0293 977.729 29.0293 978.98C29.0293 980.24 28.5929 981.121 27.72 981.625C26.8472 982.129 25.6234 982.381 24.0487 982.381ZM24.0487 976.807C23.2659 976.807 22.6045 976.861 22.0646 976.969C21.5157 977.068 21.0748 977.279 20.7419 977.603C20.4089 977.918 20.2425 978.377 20.2425 978.98C20.2425 979.592 20.4089 980.06 20.7419 980.383C21.0748 980.698 21.5157 980.91 22.0646 981.018C22.6045 981.117 23.2659 981.166 24.0487 981.166C24.8586 981.166 25.538 981.117 26.0869 981.018C26.6358 980.91 27.0767 980.698 27.4096 980.383C27.7425 980.06 27.909 979.592 27.909 978.98C27.909 978.377 27.7425 977.918 27.4096 977.603C27.0767 977.279 26.6358 977.068 26.0869 976.969C25.538 976.861 24.8586 976.807 24.0487 976.807ZM24.0487 973.906C22.501 973.906 21.2953 973.654 20.4314 973.15C19.5586 972.646 19.1222 971.764 19.1222 970.504C19.1222 969.254 19.5586 968.376 20.4314 967.872C21.2953 967.368 22.501 967.116 24.0487 967.116C25.6234 967.116 26.8472 967.368 27.72 967.872C28.5929 968.376 29.0293 969.254 29.0293 970.504C29.0293 971.764 28.5929 972.646 27.72 973.15C26.8472 973.654 25.6234 973.906 24.0487 973.906ZM24.0487 968.331C23.2659 968.331 22.6045 968.385 22.0646 968.493C21.5157 968.592 21.0748 968.804 20.7419 969.128C20.4089 969.443 20.2425 969.901 20.2425 970.504C20.2425 971.116 20.4089 971.584 20.7419 971.908C21.0748 972.223 21.5157 972.434 22.0646 972.542C22.6045 972.641 23.2659 972.691 24.0487 972.691C24.8586 972.691 25.538 972.641 26.0869 972.542C26.6358 972.434 27.0767 972.223 27.4096 971.908C27.7425 971.584 27.909 971.116 27.909 970.504C27.909 969.901 27.7425 969.443 27.4096 969.128C27.0767 968.804 26.6358 968.592 26.0869 968.493C25.538 968.385 24.8586 968.331 24.0487 968.331Z" fill="#181818"/>
<path d="M26.4108 1151.31C26.9237 1151.22 27.3196 1151.01 27.5986 1150.69C27.8775 1150.36 28.017 1149.91 28.017 1149.35C28.017 1148.61 27.7245 1148.06 27.1397 1147.71C26.5548 1147.35 25.5695 1147.18 24.1837 1147.19C24.5886 1147.38 24.9081 1147.7 25.142 1148.14C25.367 1148.58 25.4795 1149.07 25.4795 1149.61C25.4795 1150.21 25.358 1150.75 25.115 1151.23C24.8631 1151.7 24.4987 1152.07 24.0217 1152.34C23.5448 1152.61 22.9689 1152.74 22.2941 1152.74C21.3313 1152.74 20.5574 1152.46 19.9725 1151.9C19.3786 1151.35 19.0817 1150.55 19.0817 1149.53C19.0817 1148.27 19.4911 1147.39 20.31 1146.88C21.1288 1146.37 22.3481 1146.11 23.9678 1146.11C25.1015 1146.11 26.0374 1146.22 26.7752 1146.42C27.5131 1146.62 28.0755 1146.96 28.4624 1147.45C28.8493 1147.93 29.0428 1148.58 29.0428 1149.42C29.0428 1150.34 28.7953 1151.05 28.3004 1151.57C27.8055 1152.08 27.1756 1152.37 26.4108 1152.44V1151.31ZM24.4402 1149.41C24.4402 1148.8 24.2557 1148.31 23.8868 1147.92C23.5088 1147.54 23.0004 1147.34 22.3616 1147.34C21.6867 1147.34 21.1423 1147.53 20.7284 1147.91C20.3145 1148.29 20.1075 1148.82 20.1075 1149.5C20.1075 1150.13 20.3055 1150.64 20.7014 1151.01C21.0973 1151.38 21.6192 1151.57 22.2671 1151.57C22.924 1151.57 23.4504 1151.38 23.8463 1151.01C24.2422 1150.64 24.4402 1150.11 24.4402 1149.41ZM24.0487 1144.39C22.501 1144.39 21.2953 1144.14 20.4314 1143.63C19.5586 1143.13 19.1222 1142.25 19.1222 1140.99C19.1222 1139.74 19.5586 1138.86 20.4314 1138.35C21.2953 1137.85 22.501 1137.6 24.0487 1137.6C25.6234 1137.6 26.8472 1137.85 27.72 1138.35C28.5929 1138.86 29.0293 1139.74 29.0293 1140.99C29.0293 1142.25 28.5929 1143.13 27.72 1143.63C26.8472 1144.14 25.6234 1144.39 24.0487 1144.39ZM24.0487 1138.81C23.2659 1138.81 22.6045 1138.87 22.0646 1138.98C21.5157 1139.07 21.0748 1139.29 20.7419 1139.61C20.4089 1139.92 20.2425 1140.38 20.2425 1140.99C20.2425 1141.6 20.4089 1142.07 20.7419 1142.39C21.0748 1142.71 21.5157 1142.92 22.0646 1143.02C22.6045 1143.12 23.2659 1143.17 24.0487 1143.17C24.8586 1143.17 25.538 1143.12 26.0869 1143.02C26.6358 1142.92 27.0767 1142.71 27.4096 1142.39C27.7425 1142.07 27.909 1141.6 27.909 1140.99C27.909 1140.38 27.7425 1139.92 27.4096 1139.61C27.0767 1139.29 26.6358 1139.07 26.0869 1138.98C25.538 1138.87 24.8586 1138.81 24.0487 1138.81ZM24.0487 1135.91C22.501 1135.91 21.2953 1135.66 20.4314 1135.16C19.5586 1134.65 19.1222 1133.77 19.1222 1132.51C19.1222 1131.26 19.5586 1130.38 20.4314 1129.88C21.2953 1129.38 22.501 1129.12 24.0487 1129.12C25.6234 1129.12 26.8472 1129.38 27.72 1129.88C28.5929 1130.38 29.0293 1131.26 29.0293 1132.51C29.0293 1133.77 28.5929 1134.65 27.72 1135.16C26.8472 1135.66 25.6234 1135.91 24.0487 1135.91ZM24.0487 1130.34C23.2659 1130.34 22.6045 1130.39 22.0646 1130.5C21.5157 1130.6 21.0748 1130.81 20.7419 1131.13C20.4089 1131.45 20.2425 1131.91 20.2425 1132.51C20.2425 1133.12 20.4089 1133.59 20.7419 1133.91C21.0748 1134.23 21.5157 1134.44 22.0646 1134.55C22.6045 1134.65 23.2659 1134.7 24.0487 1134.7C24.8586 1134.7 25.538 1134.65 26.0869 1134.55C26.6358 1134.44 27.0767 1134.23 27.4096 1133.91C27.7425 1133.59 27.909 1133.12 27.909 1132.51C27.909 1131.91 27.7425 1131.45 27.4096 1131.13C27.0767 1130.81 26.6358 1130.6 26.0869 1130.5C25.538 1130.39 24.8586 1130.34 24.0487 1130.34Z" fill="#181818"/>
<path d="M20.3909 1315.36H19.2707V1312.82H29.0293V1314.07H20.3909V1315.36ZM24.0487 1310.71C22.501 1310.71 21.2953 1310.46 20.4314 1309.96C19.5586 1309.45 19.1222 1308.57 19.1222 1307.31C19.1222 1306.06 19.5586 1305.19 20.4314 1304.68C21.2953 1304.18 22.501 1303.93 24.0487 1303.93C25.6234 1303.93 26.8472 1304.18 27.72 1304.68C28.5929 1305.19 29.0293 1306.06 29.0293 1307.31C29.0293 1308.57 28.5929 1309.45 27.72 1309.96C26.8472 1310.46 25.6234 1310.71 24.0487 1310.71ZM24.0487 1305.14C23.2659 1305.14 22.6045 1305.19 22.0646 1305.3C21.5157 1305.4 21.0748 1305.61 20.7419 1305.94C20.4089 1306.25 20.2425 1306.71 20.2425 1307.31C20.2425 1307.93 20.4089 1308.39 20.7419 1308.72C21.0748 1309.03 21.5157 1309.24 22.0646 1309.35C22.6045 1309.45 23.2659 1309.5 24.0487 1309.5C24.8586 1309.5 25.538 1309.45 26.0869 1309.35C26.6358 1309.24 27.0767 1309.03 27.4096 1308.72C27.7425 1308.39 27.909 1307.93 27.909 1307.31C27.909 1306.71 27.7425 1306.25 27.4096 1305.94C27.0767 1305.61 26.6358 1305.4 26.0869 1305.3C25.538 1305.19 24.8586 1305.14 24.0487 1305.14ZM24.0487 1302.24C22.501 1302.24 21.2953 1301.99 20.4314 1301.48C19.5586 1300.98 19.1222 1300.1 19.1222 1298.84C19.1222 1297.59 19.5586 1296.71 20.4314 1296.21C21.2953 1295.7 22.501 1295.45 24.0487 1295.45C25.6234 1295.45 26.8472 1295.7 27.72 1296.21C28.5929 1296.71 29.0293 1297.59 29.0293 1298.84C29.0293 1300.1 28.5929 1300.98 27.72 1301.48C26.8472 1301.99 25.6234 1302.24 24.0487 1302.24ZM24.0487 1296.66C23.2659 1296.66 22.6045 1296.72 22.0646 1296.83C21.5157 1296.93 21.0748 1297.14 20.7419 1297.46C20.4089 1297.78 20.2425 1298.23 20.2425 1298.84C20.2425 1299.45 20.4089 1299.92 20.7419 1300.24C21.0748 1300.56 21.5157 1300.77 22.0646 1300.88C22.6045 1300.97 23.2659 1301.02 24.0487 1301.02C24.8586 1301.02 25.538 1300.97 26.0869 1300.88C26.6358 1300.77 27.0767 1300.56 27.4096 1300.24C27.7425 1299.92 27.909 1299.45 27.909 1298.84C27.909 1298.23 27.7425 1297.78 27.4096 1297.46C27.0767 1297.14 26.6358 1296.93 26.0869 1296.83C25.538 1296.72 24.8586 1296.66 24.0487 1296.66ZM24.0487 1293.76C22.501 1293.76 21.2953 1293.51 20.4314 1293.01C19.5586 1292.5 19.1222 1291.62 19.1222 1290.36C19.1222 1289.11 19.5586 1288.23 20.4314 1287.73C21.2953 1287.23 22.501 1286.97 24.0487 1286.97C25.6234 1286.97 26.8472 1287.23 27.72 1287.73C28.5929 1288.23 29.0293 1289.11 29.0293 1290.36C29.0293 1291.62 28.5929 1292.5 27.72 1293.01C26.8472 1293.51 25.6234 1293.76 24.0487 1293.76ZM24.0487 1288.19C23.2659 1288.19 22.6045 1288.24 22.0646 1288.35C21.5157 1288.45 21.0748 1288.66 20.7419 1288.99C20.4089 1289.3 20.2425 1289.76 20.2425 1290.36C20.2425 1290.97 20.4089 1291.44 20.7419 1291.77C21.0748 1292.08 21.5157 1292.29 22.0646 1292.4C22.6045 1292.5 23.2659 1292.55 24.0487 1292.55C24.8586 1292.55 25.538 1292.5 26.0869 1292.4C26.6358 1292.29 27.0767 1292.08 27.4096 1291.77C27.7425 1291.44 27.909 1290.97 27.909 1290.36C27.909 1289.76 27.7425 1289.3 27.4096 1288.99C27.0767 1288.66 26.6358 1288.45 26.0869 1288.35C25.538 1288.24 24.8586 1288.19 24.0487 1288.19Z" fill="#181818"/>
<defs>
<clipPath id="clip0_6248_38847">
<rect width="36" height="1311" fill="white" transform="matrix(-1 0 0 1 36 0)"/>
</clipPath>
</defs>
</svg>
