<svg width="3242" height="1161" viewBox="0 0 3242 1161" fill="none" xmlns="http://www.w3.org/2000/svg">
<rect x="106.179" y="106.179" width="3029.64" height="948.532" stroke="white" stroke-width="42.4716"/>
<rect x="21.2358" y="21.2358" width="169.887" height="169.887" fill="#333333" stroke="white" stroke-width="42.4716"/>
<rect x="3050.88" y="21.2358" width="169.887" height="169.887" fill="#333333" stroke="white" stroke-width="42.4716"/>
<rect x="21.2357" y="969.768" width="169.887" height="169.887" fill="#333333" stroke="white" stroke-width="42.4716"/>
<rect x="3050.88" y="969.768" width="169.887" height="169.887" fill="#333333" stroke="white" stroke-width="42.4716"/>
<path d="M746.084 421.738C838.814 421.738 915.263 503.142 915.263 608.613C915.263 714.084 838.814 795.488 746.084 795.488C698.658 795.488 663.973 779.207 640.613 752.308V927.15H534.434V431.648H640.613V464.917C663.973 438.018 698.658 421.738 746.084 421.738ZM724.849 694.972C773.691 694.972 809.084 661.702 809.084 608.613C809.084 555.523 773.691 522.254 724.849 522.254C676.006 522.254 640.613 555.523 640.613 608.613C640.613 661.702 676.006 694.972 724.849 694.972ZM1081.64 494.647C1095.8 447.221 1143.23 424.569 1187.82 424.569V544.905C1143.93 537.827 1081.64 555.523 1081.64 625.601V785.578H975.464V431.648H1081.64V494.647ZM1484.04 431.648H1590.22V785.578H1484.04V752.308C1460.68 779.207 1425.99 795.488 1378.57 795.488C1285.84 795.488 1209.39 714.084 1209.39 608.613C1209.39 503.142 1285.84 421.738 1378.57 421.738C1425.99 421.738 1460.68 438.018 1484.04 464.917V431.648ZM1399.8 694.972C1448.65 694.972 1484.04 661.702 1484.04 608.613C1484.04 555.523 1448.65 522.254 1399.8 522.254C1350.96 522.254 1315.57 555.523 1315.57 608.613C1315.57 661.702 1350.96 694.972 1399.8 694.972ZM1875.52 533.58H1802.61V658.871C1802.61 689.309 1828.8 692.14 1875.52 689.309V785.578C1736.78 799.735 1696.43 757.971 1696.43 658.871V533.58H1639.8V431.648H1696.43V364.401L1802.61 332.547V431.648H1875.52V533.58ZM2131.98 533.58H2059.07V658.871C2059.07 689.309 2085.26 692.14 2131.98 689.309V785.578C1993.24 799.735 1952.89 757.971 1952.89 658.871V533.58H1896.26V431.648H1952.89V364.401L2059.07 332.547V431.648H2131.98V533.58Z" fill="white"/>
<rect x="495.502" y="436.565" width="42.4716" height="495.502" fill="#5833DE"/>
<rect x="453.031" y="436.565" width="42.4716" height="495.502" fill="#E9596A"/>
<g filter="url(#filter0_d_6094_1683)">
<path d="M2294.33 422.125C2281.82 362.342 2345.82 315.843 2398.81 346.214L2779.53 564.405C2833.26 595.198 2824.33 675.269 2765.14 693.477L2613.25 740.202C2597.38 745.084 2583.73 755.389 2574.69 769.316L2511.1 867.274C2476.7 920.265 2395.38 905.067 2382.44 843.228L2294.33 422.125Z" fill="#333333"/>
<path d="M2389.11 363.148L2769.82 581.339C2808.74 603.642 2802.27 661.634 2759.4 674.821L2607.51 721.546C2587.26 727.774 2569.85 740.921 2558.32 758.689L2494.72 856.646C2469.81 895.026 2410.91 884.018 2401.54 839.23L2313.44 418.128C2304.38 374.829 2350.73 341.152 2389.11 363.148Z" stroke="white" stroke-width="39.0368"/>
</g>
<defs>
<filter id="filter0_d_6094_1683" x="2214.67" y="297.615" width="678.531" height="719.052" filterUnits="userSpaceOnUse" color-interpolation-filters="sRGB">
<feFlood flood-opacity="0" result="BackgroundImageFix"/>
<feColorMatrix in="SourceAlpha" type="matrix" values="0 0 0 0 0 0 0 0 0 0 0 0 0 0 0 0 0 0 127 0" result="hardAlpha"/>
<feOffset dy="39.0368"/>
<feGaussianBlur stdDeviation="39.0368"/>
<feColorMatrix type="matrix" values="0 0 0 0 0 0 0 0 0 0 0 0 0 0 0 0 0 0 0.28 0"/>
<feBlend mode="normal" in2="BackgroundImageFix" result="effect1_dropShadow_6094_1683"/>
<feBlend mode="normal" in="SourceGraphic" in2="effect1_dropShadow_6094_1683" result="shape"/>
</filter>
</defs>
</svg>
