<svg width="23" height="23" viewBox="0 0 23 23" fill="none" xmlns="http://www.w3.org/2000/svg">
<g filter="url(#filter0_d_32_19)">
<path fill-rule="evenodd" clip-rule="evenodd" d="M7.73684 8.10526L13.8947 14.2632L11.8421 16.3158L18 17L17.3158 10.8421L15.2632 12.8947L9.10526 6.73684L11.1579 4.68421L5 4L5.68421 10.1579L7.73684 8.10526Z" fill="#363B3E"/>
<path d="M16.9622 10.4886L15.2632 12.1876L9.81237 6.73684L11.5114 5.03776L12.2471 4.30215L11.2131 4.18727L5.05522 3.50306L4.43404 3.43404L4.50306 4.05522L5.18727 10.2131L5.30215 11.2471L6.03776 10.5114L7.73684 8.81237L13.1876 14.2632L11.4886 15.9622L10.7529 16.6978L11.7869 16.8127L17.9448 17.4969L18.566 17.566L18.4969 16.9448L17.8127 10.7869L17.6978 9.75294L16.9622 10.4886Z" stroke="white" stroke-opacity="0.8"/>
</g>
<defs>
<filter id="filter0_d_32_19" x="0.868073" y="0.868073" width="21.2639" height="21.2639" filterUnits="userSpaceOnUse" color-interpolation-filters="sRGB">
<feFlood flood-opacity="0" result="BackgroundImageFix"/>
<feColorMatrix in="SourceAlpha" type="matrix" values="0 0 0 0 0 0 0 0 0 0 0 0 0 0 0 0 0 0 127 0" result="hardAlpha"/>
<feOffset dy="1"/>
<feGaussianBlur stdDeviation="1.5"/>
<feColorMatrix type="matrix" values="0 0 0 0 0 0 0 0 0 0 0 0 0 0 0 0 0 0 0.25 0"/>
<feBlend mode="normal" in2="BackgroundImageFix" result="effect1_dropShadow_32_19"/>
<feBlend mode="normal" in="SourceGraphic" in2="effect1_dropShadow_32_19" result="shape"/>
</filter>
</defs>
</svg>
