<svg width="32" height="32" viewBox="0 0 32 32" fill="none" xmlns="http://www.w3.org/2000/svg">
<g filter="url(#filter0_d_8_252)">
<path d="M11.4276 7.27084V9.76489H16.8314C16.8314 9.76489 20.0443 9.66694 21.1858 10.8084C22.3273 11.9499 22.2351 15.1687 22.2351 15.1687V20.5724H24.7292L21.4038 24.7292L18.0784 20.5724H20.5724V16C20.5724 16 20.7918 13.2247 19.7951 12.228C18.7985 11.2314 16 11.4276 16 11.4276H11.4276V13.9216L7.27084 10.5962L11.4276 7.27084Z" fill="#363B3E"/>
<path d="M11.9276 7.27084V6.23053L11.1152 6.88041L6.9585 10.2058L6.47045 10.5962L6.9585 10.9867L11.1152 14.3121L11.9276 14.9619V13.9216V11.9276H16H16.0175L16.0347 11.9264L16.0347 11.9264L16.0348 11.9264L16.035 11.9264L16.0355 11.9263L16.04 11.926L16.0604 11.9248C16.0789 11.9237 16.1072 11.9222 16.144 11.9206C16.2176 11.9174 16.3252 11.9138 16.4579 11.9125C16.7242 11.9098 17.0875 11.9162 17.4782 11.952C17.871 11.988 18.278 12.0525 18.6369 12.1611C19.0025 12.2717 19.2753 12.4153 19.4416 12.5816C19.6076 12.7476 19.7497 13.0185 19.858 13.381C19.9643 13.737 20.0261 14.1407 20.0593 14.5302C20.0923 14.9176 20.096 15.2778 20.0912 15.5417C20.0888 15.6733 20.0844 15.7799 20.0806 15.8528C20.0787 15.8892 20.077 15.9172 20.0757 15.9355L20.0743 15.9557L20.074 15.9601L20.074 15.9606L20.074 15.9608L20.074 15.9609L20.074 15.9609L20.0724 15.9803V16V20.0724H18.0784H17.0381L17.6879 20.8848L21.0133 25.0415L21.4038 25.5296L21.7942 25.0415L25.1196 20.8848L25.7695 20.0724H24.7292H22.7351V15.1749L22.7352 15.1708L22.7358 15.1405C22.7362 15.1146 22.7367 15.0772 22.7368 15.0297C22.7372 14.9348 22.7362 14.7993 22.7315 14.6335C22.722 14.3028 22.697 13.848 22.6346 13.3539C22.5724 12.8619 22.4717 12.3184 22.3063 11.8152C22.1432 11.3188 21.9038 10.8194 21.5393 10.4549C21.1747 10.0903 20.6756 9.85126 20.1796 9.68868C19.6767 9.52387 19.1339 9.42386 18.6425 9.36246C18.1491 9.30081 17.695 9.27656 17.3648 9.2676C17.1993 9.26312 17.0639 9.26244 16.9691 9.26292C16.9217 9.26315 16.8844 9.26368 16.8585 9.26415L16.8283 9.26479L16.8246 9.26489H11.9276V7.27084Z" stroke="white"/>
</g>
<defs>
<filter id="filter0_d_8_252" x="2.67006" y="3.19022" width="27.1397" height="27.1397" filterUnits="userSpaceOnUse" color-interpolation-filters="sRGB">
<feFlood flood-opacity="0" result="BackgroundImageFix"/>
<feColorMatrix in="SourceAlpha" type="matrix" values="0 0 0 0 0 0 0 0 0 0 0 0 0 0 0 0 0 0 127 0" result="hardAlpha"/>
<feOffset dy="1"/>
<feGaussianBlur stdDeviation="1.5"/>
<feColorMatrix type="matrix" values="0 0 0 0 0 0 0 0 0 0 0 0 0 0 0 0 0 0 0.25 0"/>
<feBlend mode="normal" in2="BackgroundImageFix" result="effect1_dropShadow_8_252"/>
<feBlend mode="normal" in="SourceGraphic" in2="effect1_dropShadow_8_252" result="shape"/>
</filter>
</defs>
</svg>
