<svg width="20" height="40" viewBox="0 0 20 40" fill="none" xmlns="http://www.w3.org/2000/svg">
<path d="M7.29843 18.5898C7.44118 16.5874 7.14977 14.5776 6.44432 12.6993C5.73886 10.821 4.63617 9.11887 3.21234 7.71036C2.84459 7.34087 2.49727 6.95085 2.14995 6.56084C1.90885 6.34146 1.71616 6.07378 1.58428 5.77503C1.45241 5.47628 1.38428 5.15309 1.38428 4.82628C1.38428 4.49947 1.45241 4.17628 1.58428 3.87753C1.71616 3.57878 1.90885 3.3111 2.14995 3.09172C3.11697 2.10578 4.27248 1.32656 5.54699 0.800941C6.82149 0.275318 8.18865 0.0141532 9.56622 0.0331588C12.0236 -0.157506 14.4743 0.477942 16.533 1.83956C19.475 4.38494 19.6997 8.7162 19.0664 12.2674C18.085 16.6582 16.2066 20.7963 13.5502 24.4196C13.0803 25.1175 12.5695 25.7949 12.0587 26.4723C11.2735 27.5577 10.2161 28.4147 8.99416 28.9561C8.70402 29.0827 8.3911 29.148 8.07479 29.148C7.75849 29.148 7.44556 29.0827 7.15542 28.9561C5.11237 27.9913 6.56294 24.707 6.82853 23.1264C7.10629 21.5741 7.2634 20.0024 7.29843 18.4256" fill="white" fill-opacity="0.79"/>
<path d="M7.46164 36.1614C7.4671 37.1705 7.07474 38.1407 6.37032 38.86C5.6659 39.5793 4.70672 39.9892 3.70243 40C3.19714 39.9896 2.69905 39.8775 2.23762 39.6704C1.7762 39.4632 1.36081 39.1651 1.01604 38.7939C0.671266 38.4226 0.404105 37.9856 0.230362 37.5087C0.0566185 37.0319 -0.0201784 36.5249 0.00451396 36.0177C0.0312802 35.0394 0.441095 34.1113 1.14495 33.4349C1.84881 32.7584 2.78986 32.3883 3.76372 32.4049C4.25357 32.4021 4.73905 32.4976 5.19164 32.6859C5.64423 32.8743 6.05481 33.1515 6.39929 33.5014C6.74376 33.8514 7.01518 34.2669 7.19762 34.7237C7.38005 35.1805 7.46981 35.6693 7.46164 36.1614Z" fill="white" fill-opacity="0.79"/>
</svg>
