<svg width="1079" height="1079" viewBox="0 0 1079 1079" fill="none" xmlns="http://www.w3.org/2000/svg">
<g clip-path="url(#clip0_6258_37526)">
<rect width="1079" height="1079" fill="#242424"/>
<g clip-path="url(#clip1_6258_37526)">
<path d="M691.083 280H388.917C329.325 280 281 328.325 281 387.917V690.083C281 749.675 329.325 798 388.917 798H691.083C750.697 798 799 749.675 799 690.083V387.917C799 328.325 750.697 280 691.083 280ZM453.667 690.083H388.917V452.667H453.667V690.083ZM421.292 425.299C400.442 425.299 383.521 408.248 383.521 387.226C383.521 366.204 400.442 349.153 421.292 349.153C442.141 349.153 459.063 366.204 459.063 387.226C459.063 408.248 442.163 425.299 421.292 425.299ZM712.667 690.083H647.917V569.13C647.917 496.438 561.583 501.941 561.583 569.13V690.083H496.833V452.667H561.583V490.761C591.714 434.947 712.667 430.824 712.667 544.202V690.083Z" fill="#2675EC"/>
</g>
<path d="M527.422 -649.733C527.422 -381.388 527.422 -113.043 527.422 155.301C527.422 187.904 577.58 185.396 577.58 152.793C577.58 -113.044 577.58 -381.388 577.58 -647.225C577.58 -679.828 527.422 -679.828 527.422 -649.733Z" fill="#3D3D3D"/>
<path d="M414.571 9.82881C449.681 77.542 487.3 145.255 522.41 212.968C529.934 228.016 555.013 233.032 565.044 217.984C610.186 150.271 655.329 82.5578 700.471 17.3526C718.026 -10.2343 677.9 -37.8212 657.836 -10.2343C612.694 57.4788 567.552 122.684 522.41 190.397C537.458 192.905 549.997 192.905 565.044 195.413C527.426 125.192 492.316 57.4789 454.697 -12.7422C442.158 -42.8369 399.523 -17.758 414.571 9.82881Z" fill="#3D3D3D"/>
<path d="M-232.471 -336.221C-84.5047 -133.081 63.4614 70.0582 211.427 273.198C231.49 298.277 271.616 270.69 251.553 245.611C101.08 39.9635 -49.3939 -165.684 -197.36 -371.331C-214.915 -396.41 -252.534 -361.3 -232.471 -336.221Z" fill="#3D3D3D"/>
<path d="M45.9047 270.686C118.634 290.749 191.363 308.304 264.091 328.367C281.647 333.383 299.202 318.336 296.694 300.78C284.155 215.512 269.107 130.243 256.568 44.9751C251.552 12.3724 201.394 24.9119 208.918 57.5145C223.965 142.783 236.505 228.051 249.044 313.32C259.076 303.288 271.615 293.257 281.647 285.733C208.918 265.67 133.681 248.115 60.9522 228.051C28.3496 213.004 15.81 263.162 45.9047 270.686Z" fill="#3D3D3D"/>
<path d="M1432.78 -434.049C1244.68 -220.878 1054.08 -7.70731 863.484 202.956C840.913 228.035 881.039 260.637 901.102 235.558C1089.19 22.3874 1279.79 -190.784 1470.39 -403.955C1492.97 -426.526 1452.84 -459.128 1432.78 -434.049Z" fill="#3D3D3D"/>
<path d="M863.485 7.34349C845.929 90.104 825.866 170.357 808.311 253.117C803.295 270.672 820.851 290.736 838.406 283.212C921.166 258.133 1003.93 230.546 1089.2 205.467C1119.29 195.436 1109.26 147.786 1079.16 155.309C996.403 182.896 911.135 207.975 825.866 235.562C835.898 245.593 845.929 255.625 855.961 265.657C873.516 185.404 893.579 105.151 911.135 24.8988C918.658 -7.70386 871.008 -22.7512 863.485 7.34349Z" fill="#3D3D3D"/>
<path d="M-538.429 584.152C-345.321 591.676 -152.213 599.199 38.3869 621.77C65.9738 624.278 73.4974 576.628 43.4026 571.613C-149.705 549.042 -342.813 539.01 -538.429 533.994C-568.524 533.994 -568.524 584.152 -538.429 584.152Z" fill="#3D3D3D"/>
<path d="M-129.639 737.137C-46.8786 691.995 33.3741 646.853 116.135 604.218C133.69 594.187 131.182 571.616 116.135 561.584C48.4214 518.95 -21.7995 473.808 -89.5127 431.174C-117.1 413.618 -144.687 456.252 -117.1 473.808C-49.3865 516.442 20.8344 561.584 88.5476 604.218C88.5476 589.171 88.5476 574.123 88.5476 561.584C5.78708 606.726 -76.9733 651.868 -159.734 697.01C-187.321 712.058 -157.226 754.692 -129.639 737.137Z" fill="#3D3D3D"/>
<path d="M-335.287 1499.54C-127.132 1283.86 86.0393 1068.18 289.179 847.49C311.75 824.919 279.147 787.3 256.576 809.871C45.913 1023.04 -157.226 1243.74 -365.382 1459.42C-387.953 1484.5 -357.858 1522.11 -335.287 1499.54Z" fill="#3D3D3D"/>
<path d="M30.8651 952.817C116.134 920.214 201.402 885.104 284.163 852.501C271.623 844.978 259.084 837.454 246.544 829.93C234.005 927.738 218.957 1028.05 206.418 1125.86C201.402 1158.46 251.56 1168.5 256.576 1135.89C269.115 1033.07 284.163 932.754 296.702 829.93C299.21 809.867 274.131 802.343 259.084 807.359C176.323 839.962 93.5628 872.565 10.8022 905.167C-16.7846 917.707 0.77034 965.356 30.8651 952.817Z" fill="#3D3D3D"/>
<path d="M620.208 1727.77C610.177 1484.5 602.653 1243.74 585.098 1000.48C582.59 972.889 534.94 972.889 534.94 1000.48C537.448 1241.23 557.511 1484.5 567.543 1725.26C572.558 1757.86 622.716 1760.37 620.208 1727.77Z" fill="#3D3D3D"/>
<path d="M464.722 1191.08C504.848 1098.28 544.974 1005.49 585.101 915.207C570.053 915.207 555.006 917.715 542.467 917.715C590.117 997.968 640.275 1078.22 687.925 1158.47C705.48 1186.06 748.114 1160.98 730.559 1133.39C680.401 1050.63 632.751 970.381 582.593 887.62C572.561 872.573 547.482 875.081 539.959 890.128C499.832 982.92 459.706 1075.71 419.58 1166C404.532 1201.11 449.674 1221.17 464.722 1191.08Z" fill="#3D3D3D"/>
<path d="M1277.29 1481.97C1154.4 1243.72 1016.47 1015.5 873.521 787.282C855.965 759.695 813.331 784.774 830.886 812.361C968.821 1038.07 1109.26 1263.78 1229.64 1499.52C1244.69 1529.62 1292.34 1512.06 1277.29 1481.97Z" fill="#3D3D3D"/>
<path d="M873.519 1038.08C865.995 947.794 855.964 860.017 848.44 769.733C835.901 777.257 823.361 784.78 810.822 792.304C898.598 837.446 983.866 882.588 1071.64 927.73C1099.23 942.778 1121.8 897.636 1094.21 882.588C1008.95 837.446 921.169 792.304 835.901 749.67C818.345 742.146 798.282 754.686 798.282 772.241C805.806 862.525 815.837 950.301 823.361 1040.59C828.377 1070.68 878.535 1070.68 873.519 1038.08Z" fill="#3D3D3D"/>
<path d="M1668.52 561.571C1422.75 539 1179.48 513.921 933.711 491.35C901.109 488.842 893.585 539 926.188 541.508C1171.96 566.587 1417.73 586.65 1661 611.729C1693.6 614.237 1701.13 564.079 1668.52 561.571Z" fill="#3D3D3D"/>
<path d="M1086.69 689.475C1026.5 621.762 963.803 551.541 903.614 483.828C898.598 496.367 896.09 508.907 891.074 521.446C968.819 493.859 1049.07 463.764 1126.82 436.178C1156.91 426.146 1141.86 378.496 1111.77 388.527C1031.52 416.114 951.264 446.209 873.519 473.796C858.472 478.812 850.948 498.875 860.98 511.414C923.677 581.635 983.867 649.349 1044.06 719.57C1069.14 744.649 1109.26 714.554 1086.69 689.475Z" fill="#3D3D3D"/>
</g>
<defs>
<clipPath id="clip0_6258_37526">
<rect width="1079" height="1079" fill="white"/>
</clipPath>
<clipPath id="clip1_6258_37526">
<rect width="518" height="518" fill="white" transform="translate(281 280)"/>
</clipPath>
</defs>
</svg>
