<svg width="1080" height="1080" viewBox="0 0 1080 1080" fill="none" xmlns="http://www.w3.org/2000/svg">
<g clip-path="url(#clip0_117_358)">
<rect width="1080" height="1080" transform="matrix(1 0 0 -1 0 1080)" fill="#232323"/>
<path d="M1078.29 335.488L1082 349.142L939.347 387.868L1018.67 638.226C1039.86 669.637 1071.56 716.514 1073.55 719.16L1062.23 727.649C1059.38 723.843 1011.79 653.323 1006.37 645.3L1005.81 644.451L975.145 547.684L840.684 592.424L910.086 827.996L896.517 832L827.073 596.287L765.254 610.889L822.856 813.931L809.244 817.794L751.331 613.648L597.713 637.207L563.019 831.25L549.096 828.76L584.511 630.613L581.894 596.627L372.541 652.276L415.414 828.321L401.66 831.675L358.859 655.926L308.516 669.312C313.27 729.941 320.245 816.662 321.123 821.968C321.052 821.572 320.967 821.303 320.91 821.162L307.483 825.633C307.157 824.642 306.266 822.011 294.013 665.605L283.74 639.924L241.094 655.205L15.5409 816.889L7.29183 805.385L233.68 643.135L234.487 642.555L278.505 626.779L270.341 606.39L152.449 637.532L9.51326 727.041L2 715.042L146.761 624.388L272.732 591.109L328.721 575.658L281.066 452.233L195.421 475.254L27.497 583.157L19.8422 571.257L184.695 465.336L173.999 406.97L260.436 383.921L224.625 262.902L87.2777 14.653L99.6583 7.80469L231.162 245.498L269.704 175.191L504.342 96.5772C495.64 48.6395 489.471 14.7661 489.032 12.7286L495.951 11.2288L502.856 9.71478C503.252 11.4976 509.45 45.555 517.897 92.0353L664.073 43.0646L652.64 4.26733L666.209 0.263062L677.486 38.551L779.092 4.50787L783.592 17.9214L681.491 52.1344L698.625 110.288L763.571 89.064L850.306 20.7513L859.064 31.8726L770.348 101.742L702.63 123.871L757.444 309.948L1061.33 228.887L1064.98 242.555L761.448 323.517L788.176 414.243L1078.26 335.474L1078.29 335.488ZM970.872 534.2L925.679 391.59L792.195 427.84L836.68 578.869L970.857 534.214L970.872 534.2ZM823.068 582.718L778.541 431.547L718.972 447.72L761.392 597.249L823.082 582.704L823.068 582.718ZM705.318 451.427L587.384 483.447L598.109 622.817L747.44 599.909L705.318 451.427ZM547.653 174.54L533.617 178.657C547.61 255.87 562.042 335.714 566.599 360.857L671.671 332.828L620.054 150.868L547.653 174.54ZM569.075 374.851L583.082 455.36L585.502 469.297L701.441 437.815L675.52 346.453L569.06 374.851H569.075ZM576.149 522.06L347.539 585.166L368.24 638.792L580.776 582.294L576.135 522.06H576.149ZM284.094 602.669L305.247 655.53L354.501 642.442L333.843 588.944L284.094 602.669ZM342.432 571.894L575.06 507.684L572.853 479.032L555.364 378.516L294.819 448.555L342.432 571.894ZM428.615 397.943L417.663 356.655L278.123 393.868L290.32 435.127L428.615 397.957V397.943ZM190.284 417.285L198.095 459.902L276.666 438.777L264.455 397.504L190.284 417.285ZM427.709 339.322L442.283 394.264L552.888 364.536C543.677 313.585 531.339 245.428 519.977 182.676L240.005 264.954L274.119 380.284L427.723 339.322H427.709ZM279.467 186.85L245.636 248.54L517.43 168.668C513.737 148.279 510.185 128.668 506.903 110.642L279.453 186.85H279.467ZM668.091 56.648L520.458 106.114C523.797 124.494 527.391 144.373 531.07 164.678L543.337 161.07L685.184 114.702L668.077 56.648H668.091ZM689.202 128.272L633.525 146.468L685.353 329.177L743.804 313.585L689.202 128.257V128.272ZM747.794 327.182L689.202 342.803L715.095 434.108L774.522 417.964L747.78 327.168L747.794 327.182Z" fill="url(#paint0_linear_117_358)"/>
<rect x="-12" y="339" width="1052" height="170" fill="#4FA2EF"/>
<path d="M52 478H25V377.5H52V415.75H88V377.5H115V478H88V439.75H52V478ZM146.255 478H117.455L153.005 377.5H190.655L226.205 478H196.655L190.505 459.25H152.405L146.255 478ZM164.705 422.05L159.905 436.75H183.005L178.205 422.05L171.455 396.85L164.705 422.05ZM255.76 478H228.76V377.5H271.21C296.71 377.5 315.76 388 315.76 414.85C315.76 441.85 297.01 452.35 271.21 452.35H255.76V478ZM271.51 401.5H255.76V428.35H271.51C282.01 428.35 287.26 423.55 287.26 414.85C287.26 406 282.01 401.5 271.51 401.5ZM351.414 478H324.414V377.5H366.864C392.364 377.5 411.414 388 411.414 414.85C411.414 441.85 392.664 452.35 366.864 452.35H351.414V478ZM367.164 401.5H351.414V428.35H367.164C377.664 428.35 382.914 423.55 382.914 414.85C382.914 406 377.664 401.5 367.164 401.5ZM473.341 478H446.341V445.6L407.641 377.5H441.841L451.591 399.7L460.441 422.8L469.291 399.7L479.191 377.5H512.491L473.341 445.9V478ZM594.227 479.2C562.127 479.2 542.477 456.55 542.477 427.6C542.477 398.65 562.127 376 594.227 376C615.677 376 631.277 386.35 639.677 401.95L617.177 421.3C614.477 411.55 606.677 402.1 593.927 402.1C579.977 402.1 571.727 412.45 571.727 427.6C571.727 442.75 579.977 453.1 593.927 453.1C606.677 453.1 614.477 443.65 617.177 433.9L639.677 453.25C631.277 468.85 615.677 479.2 594.227 479.2ZM672.361 478H645.361V377.5H672.361V415.75H708.361V377.5H735.361V478H708.361V439.75H672.361V478ZM766.616 478H737.816L773.366 377.5H811.016L846.566 478H817.016L810.866 459.25H772.766L766.616 478ZM785.066 422.05L780.266 436.75H803.366L798.566 422.05L791.816 396.85L785.066 422.05ZM876.121 478H849.121V377.5H876.121V478ZM918.016 478H891.016V377.5H918.016L947.566 422.8L955.966 438.55L954.016 409V377.5H981.016V478H954.916L924.316 432.85L915.616 417.4L918.016 449.95V478ZM1021.47 443.05H997.469C997.469 424.45 991.469 401.8 991.469 377.5H1027.47C1027.47 401.65 1021.47 424.45 1021.47 443.05ZM1022.97 478H995.969V452.35H1022.97V478Z" fill="#E5DCCA"/>
<path d="M56.55 200H27.75L63.3 99.5H100.95L136.5 200H106.95L100.8 181.25H62.7L56.55 200ZM75 144.05L70.2 158.75H93.3L88.5 144.05L81.75 118.85L75 144.05ZM218.291 201.2C186.191 201.2 166.541 178.55 166.541 149.6C166.541 120.65 186.191 98 218.291 98C239.741 98 255.341 108.35 263.741 123.95L241.241 143.3C238.541 133.55 230.741 124.1 217.991 124.1C204.041 124.1 195.791 134.45 195.791 149.6C195.791 164.75 204.041 175.1 217.991 175.1C230.741 175.1 238.541 165.65 241.241 155.9L263.741 175.25C255.341 190.85 239.741 201.2 218.291 201.2ZM344.876 200H269.426V99.5H296.426V176H344.876V200ZM427.821 200H350.871V99.5H427.821V123.5H377.871V137.75H420.321V161.75H377.871V176H427.821V200ZM458.943 200H430.143L465.693 99.5H503.343L538.893 200H509.343L503.193 181.25H465.093L458.943 200ZM477.393 144.05L472.593 158.75H495.693L490.893 144.05L484.143 118.85L477.393 144.05ZM568.447 200H541.447V99.5H568.447L597.997 144.8L606.397 160.55L604.447 131V99.5H631.447V200H605.347L574.747 154.85L566.047 139.4L568.447 171.95V200ZM82.5 326.2C50.4 326.2 30.75 303.55 30.75 274.6C30.75 245.65 50.4 223 82.5 223C103.95 223 119.55 233.35 127.95 248.95L105.45 268.3C102.75 258.55 94.95 249.1 82.2 249.1C68.25 249.1 60 259.45 60 274.6C60 289.75 68.25 300.1 82.2 300.1C94.95 300.1 102.75 290.65 105.45 280.9L127.95 300.25C119.55 315.85 103.95 326.2 82.5 326.2ZM160.635 325H133.635V224.5H160.635V262.75H196.635V224.5H223.635V325H196.635V286.75H160.635V325ZM254.89 325H226.09L261.64 224.5H299.29L334.84 325H305.29L299.14 306.25H261.04L254.89 325ZM273.34 269.05L268.54 283.75H291.64L286.84 269.05L280.09 243.85L273.34 269.05ZM364.395 325H337.395V224.5H364.395V325ZM406.289 325H379.289V224.5H406.289L435.839 269.8L444.239 285.55L442.289 256V224.5H469.289V325H443.189L412.589 279.85L403.889 264.4L406.289 296.95V325ZM533.73 325H506.73V224.5H533.73V325ZM589.852 326.5C570.352 326.5 552.052 320.8 540.652 308.8L557.452 287.05C565.852 297.25 579.652 302.5 591.352 302.5C598.252 302.5 602.602 300.85 602.602 296.65C602.602 291.55 597.502 289 584.152 286.45L574.102 284.5C556.852 281.2 542.452 273.55 542.452 254.5C542.452 234.1 560.002 223.3 582.352 223.3C602.002 223.3 617.452 230.2 627.502 240.1L610.852 261.55C602.902 253.15 590.002 247.3 579.202 247.3C573.952 247.3 570.202 249.1 570.202 252.7C570.202 258.25 576.052 260.2 585.952 262.45L597.802 265.15C619.702 270.1 630.352 279.25 630.352 295.9C630.352 316.3 612.952 326.5 589.852 326.5ZM688.63 325H659.83L695.38 224.5H733.03L768.58 325H739.03L732.88 306.25H694.78L688.63 325ZM707.08 269.05L702.28 283.75H725.38L720.58 269.05L713.83 243.85L707.08 269.05Z" fill="#E5DCCA"/>
<g clip-path="url(#clip1_117_358)">
<path d="M449.115 825.582C444.159 822.736 440.167 818.95 437.102 815.005L415.694 846.272C421.18 848.097 426.867 850.634 432.539 853.841C438.191 857.156 443.111 860.781 447.408 864.736L464.272 830.813C459.251 830.085 454.07 828.429 449.115 825.582Z" fill="black"/>
<path d="M467.501 888.286C478.349 892.587 502.765 885.667 519.565 888.741L526.526 852.042C511.154 849.126 498.264 830.756 490.432 827.7C475.248 822.016 456.574 828.231 447.694 843.706C438.707 859.161 447.089 880.601 467.48 888.395L467.501 888.286Z" fill="#353535"/>
<path d="M427.459 790.746C421.162 785.514 398.945 783.207 389.724 770.915L359.955 793.643C370.315 807.609 376.138 832.489 385.334 840.178C402.226 854.597 425.078 851.193 434.153 835.867C443.357 820.454 439.492 801.216 427.439 790.854L427.459 790.746Z" fill="#353535"/>
<path d="M492.443 862.624C494.576 855.515 490.612 848.034 483.714 845.379C476.794 842.833 468.828 845.808 465.761 852.516C462.694 859.225 466.386 867.551 474.239 870.499C482.091 873.446 490.309 869.734 492.443 862.624Z" fill="#5B5B5B"/>
<path d="M395.883 805.844C390.62 811.126 391.25 820.218 397.723 825.707C404.088 831.176 413.2 830.438 417.592 824.429C421.984 818.421 420.756 810.113 415.176 805.242C409.574 800.478 401.127 800.67 395.883 805.844Z" fill="#5B5B5B"/>
<path d="M487.282 860.861C488.665 856.525 486.306 851.816 481.923 850.088C477.52 848.467 472.568 850.332 470.86 854.606C469.044 858.86 471.342 863.894 476.069 865.576C480.777 867.366 485.898 865.197 487.302 860.753L487.282 860.861Z" fill="#BFBFBF"/>
<path d="M399.897 809.518C396.796 812.855 397.197 818.426 401.076 821.629C404.934 824.941 410.505 824.539 413.322 820.924C416.139 817.309 415.46 812.021 411.885 808.988C408.311 805.955 403.018 806.072 399.897 809.518Z" fill="#BFBFBF"/>
<path d="M355.865 699.891C354.99 694.454 355.522 689.284 356.859 684.603L318.97 686.276C320.799 692.006 322.417 698.257 323.412 704.839C324.494 711.549 324.86 717.899 324.854 723.842L361.474 714.077C358.754 710.084 356.653 705.2 355.886 699.783L355.865 699.891Z" fill="black"/>
<path d="M321.822 755.794C324.146 761.282 331.104 767.761 338.665 774.017C346.314 780.403 354.565 786.566 359.952 793.644L389.721 770.917C385.124 764.998 383.525 756.283 382.993 748.444C382.461 740.604 382.997 733.64 381.36 729.853C378.221 722.753 372.723 717.448 365.664 713.866C358.604 710.284 350.005 708.317 341.141 710.112C332.386 711.928 325.158 717.51 321.309 725.977C317.481 734.335 317.288 745.401 321.822 755.794Z" fill="#353535"/>
<path d="M371.157 664.212C371.659 660.382 369.154 654.075 367.546 646.592C365.916 639.218 365.312 630.58 368.358 623.98L334.276 608.543C330.468 616.793 323.851 625.07 318.1 633.512C312.262 641.826 307.526 650.236 306.701 656.36C305.303 667.871 308.759 678.62 314.965 685.517C321.15 692.522 329.761 695.614 338.569 694.705C347.506 693.708 355.089 689.203 360.719 683.766C366.369 678.22 370.085 671.635 371.028 664.3L371.157 664.212Z" fill="#353535"/>
<path d="M357.737 755.648C364.25 752.061 366.676 743.998 363.888 737.413C360.991 730.807 353.479 727.251 346.434 729.504C339.39 731.756 335.866 740.284 339.207 748.096C342.656 755.928 351.245 759.127 357.758 755.54L357.737 755.648Z" fill="#5B5B5B"/>
<path d="M341.372 646.224C334.18 644.523 326.649 649.936 325.676 658.612C324.595 667.267 330.544 674.339 337.914 674.504C345.306 674.56 351.43 668.88 352.291 661.978C353.064 654.947 348.543 648.033 341.351 646.332L341.372 646.224Z" fill="#5B5B5B"/>
<path d="M355.292 750.811C359.378 748.783 361.013 743.71 359.221 739.557C357.321 735.383 352.588 733.139 348.26 734.673C343.931 736.208 341.93 741.436 343.944 746.192C345.958 750.948 351.186 752.949 355.272 750.92L355.292 750.811Z" fill="#BFBFBF"/>
<path d="M340.236 651.622C335.69 650.759 331.337 654.195 330.696 659.345C330.056 664.495 333.601 668.868 338.142 669.169C342.704 669.361 346.603 665.951 347.249 661.363C347.766 656.863 344.892 652.505 340.345 651.642L340.236 651.622Z" fill="#BFBFBF"/>
<path d="M416.871 562.753C421.42 559.466 426.413 557.385 431.201 556.386L411.687 523.862C407.624 528.138 403.019 532.311 397.569 536.212C392.226 540.134 386.703 543.236 381.391 545.817L406.247 574.42C408.625 570.161 412.194 566.127 416.743 562.84L416.871 562.753Z" fill="black"/>
<path d="M351.526 556.636C347.53 561.149 344.681 570.253 342.271 580.002C339.862 589.751 337.998 600.164 334.17 608.522L368.252 623.959C371.19 617.339 378.119 612.148 384.78 608.365C391.442 604.582 397.857 602.097 400.571 599.023C405.593 593.247 408.004 585.853 408.292 577.833C408.471 569.792 406.398 561.212 400.903 554.113C395.408 547.015 387.179 543.099 378.061 543.276C368.943 543.453 358.895 547.94 351.547 556.527L351.526 556.636Z" fill="#353535"/>
<path d="M457.108 558.158C461.024 556.434 465.462 550.771 471.329 545.267C477.108 539.634 484.098 534.118 491.473 532.489L483.265 495.941C474.705 497.906 464.54 497.099 454.726 496.808C445.04 496.429 435.835 496.477 430.543 498.95C420.516 503.328 413.378 511.395 410.504 520.047C407.521 528.677 408.734 537.655 413.713 545.105C418.693 552.554 426.217 557.233 433.976 559.49C441.735 561.747 449.75 561.473 457.087 558.266L457.108 558.158Z" fill="#353535"/>
<path d="M367.257 589.002C373.285 593.286 381.593 592.058 386.316 586.673C390.93 581.268 391.062 572.881 385.909 567.53C380.864 562.199 371.597 562.572 365.979 569.133C360.36 575.693 361.207 584.826 367.236 589.11L367.257 589.002Z" fill="#5B5B5B"/>
<path d="M457.02 523.15C454.53 516.173 446.09 512.778 438.366 516.248C430.643 519.717 427.464 528.199 431.051 534.711C434.53 541.203 442.681 543.758 449.307 540.753C455.933 537.748 459.51 530.127 457.02 523.15Z" fill="#5B5B5B"/>
<path d="M370.431 584.671C374.047 587.488 379.335 586.808 382.347 583.342C385.36 579.876 385.242 574.583 382.034 571.395C378.717 568.186 373.146 568.587 369.834 572.445C366.523 576.303 366.924 581.875 370.54 584.692L370.431 584.671Z" fill="#BFBFBF"/>
<path d="M451.939 525.103C450.276 520.862 445.048 518.861 440.4 520.895C435.752 522.93 433.751 528.158 435.78 532.244C437.809 536.33 442.882 537.965 447.164 536.085C451.446 534.206 453.602 529.344 451.939 525.103Z" fill="#BFBFBF"/>
<path d="M572.885 526.625C578.576 527.368 583.716 529.24 588.3 531.679L595.364 494.439C589.752 495.057 583.504 494.881 577.143 494.123C570.674 493.345 564.694 491.762 559.337 489.848L556.99 527.647C561.839 526.324 567.411 525.923 572.993 526.645L572.885 526.625Z" fill="black"/>
<path d="M531.69 475.964C519.98 476.21 500.06 491.946 483.265 495.938L491.473 532.486C506.609 528.965 525.509 541.073 533.956 540.881C550.115 540.245 565.006 527.368 567.162 509.497C569.298 491.733 553.487 475.164 531.69 475.964Z" fill="#353535"/>
<path d="M610.457 549.675C620.309 551.543 642.037 541.646 658.059 544.685L665.02 507.986C648.998 504.946 632.403 487.78 622.552 485.911C613.242 484.145 604.12 486.116 596.861 490.683C589.386 495.209 583.948 502.589 582.697 511.548C581.359 520.379 583.649 529 588.298 535.826C593.381 542.734 601.147 547.909 610.457 549.675Z" fill="#353535"/>
<path d="M518.622 509.374C519.365 516.693 525.946 522.203 533.291 521.914C540.636 521.624 546.801 515.728 547.074 508.378C547.238 501.007 540.692 494.719 532.332 495.04C523.972 495.36 517.792 501.927 518.622 509.374Z" fill="#5B5B5B"/>
<path d="M630.461 520.495C631.837 513.242 626.687 506.097 619.001 504.639C611.315 503.181 603.907 507.944 602.531 515.198C601.155 522.451 606.304 529.596 613.991 531.054C621.677 532.512 629.085 527.749 630.461 520.495Z" fill="#5B5B5B"/>
<path d="M523.978 508.934C524.347 513.49 528.401 516.95 533.045 516.71C537.668 516.577 541.521 512.822 541.605 508.24C541.581 503.637 537.568 499.96 532.491 500.118C527.414 500.277 523.629 504.269 523.978 508.934Z" fill="#BFBFBF"/>
<path d="M625.153 519.492C626.016 514.945 622.796 510.633 618.033 509.73C613.27 508.826 608.674 511.768 607.832 516.206C606.99 520.645 610.189 525.065 614.953 525.968C619.716 526.872 624.311 523.93 625.153 519.492Z" fill="#BFBFBF"/>
<path d="M745.095 558.84C751.049 559.97 756.622 561.924 761.402 564.513L768.466 527.273C763.07 527.931 757.277 527.73 751.214 526.58C745.152 525.43 739.687 523.496 734.907 520.907L727.843 558.148C733.239 557.489 739.032 557.691 745.095 558.84Z" fill="black"/>
<path d="M712.73 503.016C702.878 501.147 681.15 511.045 665.02 507.985L658.058 544.684C674.08 547.723 690.675 564.89 700.635 566.779C719.255 570.311 737.122 558.896 740.448 541.358C743.775 523.821 731.35 506.548 712.73 503.016Z" fill="#353535"/>
<path d="M783.668 582.529C793.519 584.397 815.247 574.5 831.269 577.539L838.231 540.84C822.208 537.801 805.614 520.634 795.762 518.765C777.034 515.213 759.276 526.649 755.928 544.294C752.581 561.94 765.047 578.997 783.668 582.529Z" fill="#353535"/>
<path d="M692.706 532.302C691.33 539.555 696.48 546.7 704.166 548.158C711.852 549.616 719.261 544.853 720.636 537.6C722.012 530.346 716.863 523.201 709.176 521.743C701.49 520.285 694.082 525.049 692.706 532.302Z" fill="#5B5B5B"/>
<path d="M803.672 553.35C805.047 546.096 799.898 538.951 792.212 537.493C784.525 536.035 777.117 540.799 775.741 548.052C774.365 555.305 779.515 562.45 787.201 563.908C794.887 565.366 802.296 560.603 803.672 553.35Z" fill="#5B5B5B"/>
<path d="M698.011 533.311C697.169 537.749 700.368 542.169 705.131 543.073C709.895 543.976 714.49 541.035 715.332 536.596C716.174 532.158 712.975 527.738 708.211 526.834C703.448 525.931 698.853 528.872 698.011 533.311Z" fill="#BFBFBF"/>
<path d="M798.364 552.346C799.226 547.8 796.007 543.488 791.243 542.584C786.48 541.681 781.884 544.622 781.043 549.061C780.201 553.499 783.4 557.919 788.163 558.823C792.926 559.726 797.522 556.785 798.364 552.346Z" fill="#BFBFBF"/>
<path d="M918.31 591.697C924.264 592.827 929.837 594.781 934.617 597.37L941.681 560.129C936.285 560.788 930.491 560.586 924.429 559.436C918.367 558.287 912.902 556.353 908.121 553.764L901.058 591.004C906.454 590.345 912.247 590.547 918.31 591.697Z" fill="black"/>
<path d="M885.945 535.872C875.985 533.983 854.365 543.901 838.235 540.842L831.274 577.541C847.296 580.58 863.89 597.747 873.85 599.636C892.47 603.168 910.337 591.753 913.664 574.215C916.99 556.677 904.565 539.404 885.945 535.872Z" fill="#353535"/>
<path d="M956.774 615.365C966.625 617.233 988.354 607.336 1004.38 610.375L1011.34 573.676C995.315 570.637 978.72 553.47 968.869 551.601C950.249 548.069 932.382 559.484 929.035 577.13C925.688 594.776 938.154 611.833 956.774 615.365Z" fill="#353535"/>
<path d="M865.812 565.138C864.437 572.391 869.586 579.536 877.272 580.994C884.959 582.452 892.367 577.689 893.743 570.436C895.119 563.183 889.969 556.038 882.283 554.58C874.597 553.122 867.188 557.885 865.812 565.138Z" fill="#5B5B5B"/>
<path d="M976.884 586.206C978.26 578.953 973.11 571.808 965.424 570.35C957.738 568.892 950.329 573.655 948.954 580.909C947.578 588.162 952.727 595.307 960.414 596.765C968.1 598.223 975.508 593.46 976.884 586.206Z" fill="#5B5B5B"/>
<path d="M871.225 566.167C870.383 570.606 873.582 575.026 878.346 575.929C883.109 576.833 887.704 573.891 888.546 569.453C889.388 565.014 886.189 560.594 881.426 559.69C876.662 558.787 872.067 561.728 871.225 566.167Z" fill="#BFBFBF"/>
<path d="M971.47 585.182C972.333 580.635 969.113 576.324 964.35 575.42C959.586 574.517 954.991 577.458 954.149 581.897C953.307 586.335 956.506 590.755 961.27 591.659C966.033 592.562 970.628 589.621 971.47 585.182Z" fill="#BFBFBF"/>
<path d="M1091.52 624.551C1097.48 625.681 1103.05 627.635 1107.83 630.224L1114.89 592.983C1109.5 593.642 1103.7 593.44 1097.64 592.29C1091.58 591.141 1086.11 589.207 1081.33 586.618L1074.27 623.858C1079.67 623.199 1085.46 623.401 1091.52 624.551Z" fill="black"/>
<path d="M1059.05 568.706C1049.2 566.837 1027.47 576.735 1011.45 573.696L1004.48 610.395C1020.51 613.434 1037.1 630.601 1046.95 632.47C1065.68 636.022 1083.44 624.586 1086.77 607.049C1090.09 589.511 1077.67 572.238 1059.05 568.706Z" fill="#353535"/>
<path d="M1039.02 597.992C1037.65 605.245 1042.8 612.39 1050.48 613.848C1058.17 615.306 1065.58 610.543 1066.95 603.29C1068.33 596.037 1063.18 588.892 1055.49 587.434C1047.81 585.976 1040.4 590.739 1039.02 597.992Z" fill="#5B5B5B"/>
<path d="M1044.33 599.001C1043.49 603.439 1046.69 607.859 1051.45 608.763C1056.21 609.666 1060.81 606.725 1061.65 602.286C1062.49 597.848 1059.29 593.428 1054.53 592.524C1049.77 591.621 1045.17 594.562 1044.33 599.001Z" fill="#BFBFBF"/>
<path d="M1093.68 945.487C1083.82 943.619 1062.1 953.516 1046.07 950.477L1039.11 987.176C1055.13 990.215 1071.73 1007.38 1081.58 1009.25C1100.31 1012.8 1118.07 1001.37 1121.41 983.722C1124.76 966.076 1112.3 949.019 1093.68 945.487Z" fill="#353535"/>
<path d="M1073.65 974.773C1072.28 982.027 1077.43 989.172 1085.11 990.63C1092.8 992.088 1100.21 987.325 1101.58 980.071C1102.96 972.818 1097.81 965.673 1090.12 964.215C1082.44 962.757 1075.03 967.52 1073.65 974.773Z" fill="#5B5B5B"/>
<path d="M1078.96 975.782C1078.09 980.329 1081.31 984.641 1086.08 985.544C1090.84 986.448 1095.43 983.506 1096.28 979.068C1097.12 974.629 1093.92 970.209 1089.16 969.305C1084.39 968.402 1079.8 971.343 1078.96 975.782Z" fill="#BFBFBF"/>
<path d="M959.037 936.322C953.083 935.193 947.509 933.239 942.729 930.65L935.665 967.89C941.062 967.231 946.855 967.433 952.918 968.583C958.98 969.733 964.445 971.667 969.225 974.256L976.289 937.015C970.893 937.674 965.099 937.472 959.037 936.322Z" fill="black"/>
<path d="M991.402 992.145C1001.25 994.013 1022.98 984.116 1039 987.155L1045.96 950.455C1029.94 947.416 1013.35 930.25 1003.5 928.381C984.876 924.849 967.01 936.264 963.683 953.802C960.357 971.34 972.782 988.613 991.402 992.145Z" fill="#353535"/>
<path d="M920.572 912.652C910.612 910.763 888.992 920.681 872.862 917.621L865.901 954.321C881.923 957.36 898.517 974.526 908.477 976.416C927.097 979.948 944.964 968.532 948.311 950.886C951.658 933.241 939.192 916.184 920.572 912.652Z" fill="#353535"/>
<path d="M1011.51 962.986C1012.89 955.733 1007.74 948.588 1000.05 947.13C992.365 945.672 984.957 950.435 983.581 957.688C982.205 964.942 987.355 972.087 995.041 973.545C1002.73 975.003 1010.14 970.239 1011.51 962.986Z" fill="#5B5B5B"/>
<path d="M900.44 941.919C899.064 949.172 904.214 956.317 911.9 957.775C919.586 959.233 926.994 954.47 928.37 947.216C929.746 939.963 924.597 932.818 916.91 931.36C909.224 929.902 901.816 934.665 900.44 941.919Z" fill="#5B5B5B"/>
<path d="M1006.1 961.962C1006.94 957.524 1003.74 953.104 998.978 952.2C994.214 951.297 989.619 954.238 988.777 958.677C987.935 963.115 991.134 967.535 995.897 968.439C1000.66 969.342 1005.26 966.401 1006.1 961.962Z" fill="#BFBFBF"/>
<path d="M905.853 942.948C904.991 947.494 908.21 951.806 912.974 952.71C917.737 953.613 922.332 950.672 923.174 946.233C924.016 941.795 920.817 937.375 916.054 936.471C911.29 935.568 906.695 938.509 905.853 942.948Z" fill="#BFBFBF"/>
<path d="M785.824 903.467C779.87 902.337 774.297 900.383 769.517 897.794L762.453 935.034C767.849 934.376 773.643 934.577 779.705 935.727C785.768 936.877 791.233 938.811 796.013 941.4L803.077 904.16C797.681 904.818 791.887 904.617 785.824 903.467Z" fill="black"/>
<path d="M818.298 959.31C828.15 961.178 849.878 951.281 865.9 954.32L872.861 917.621C856.839 914.582 840.245 897.415 830.393 895.546C811.665 891.994 793.906 903.43 790.58 920.967C787.253 938.505 799.678 955.778 818.298 959.31Z" fill="#353535"/>
<path d="M747.361 879.797C737.509 877.929 715.781 887.826 699.759 884.787L692.798 921.486C708.82 924.525 725.414 941.692 735.266 943.561C753.994 947.113 771.752 935.677 775.1 918.032C778.447 900.386 765.981 883.329 747.361 879.797Z" fill="#353535"/>
<path d="M838.299 930.131C839.675 922.878 834.526 915.733 826.839 914.275C819.153 912.817 811.745 917.58 810.369 924.833C808.993 932.087 814.143 939.232 821.829 940.69C829.515 942.148 836.924 937.384 838.299 930.131Z" fill="#5B5B5B"/>
<path d="M727.336 909.083C725.961 916.337 731.11 923.482 738.796 924.94C746.483 926.398 753.891 921.634 755.267 914.381C756.643 907.128 751.493 899.983 743.807 898.525C736.121 897.067 728.712 901.83 727.336 909.083Z" fill="#5B5B5B"/>
<path d="M832.995 929.127C833.836 924.689 830.637 920.269 825.874 919.365C821.111 918.462 816.515 921.403 815.673 925.842C814.832 930.28 818.031 934.7 822.794 935.604C827.557 936.507 832.153 933.566 832.995 929.127Z" fill="#BFBFBF"/>
<path d="M732.641 910.092C731.778 914.639 734.998 918.95 739.761 919.854C744.525 920.757 749.12 917.816 749.962 913.377C750.804 908.939 747.605 904.519 742.841 903.615C738.078 902.712 733.483 905.653 732.641 910.092Z" fill="#BFBFBF"/>
<path d="M612.722 870.633C606.768 869.503 601.194 867.549 596.414 864.96L589.35 902.2C594.747 901.541 600.54 901.743 606.603 902.893C612.665 904.043 618.13 905.977 622.91 908.566L629.974 871.325C624.578 871.984 618.784 871.782 612.722 870.633Z" fill="black"/>
<path d="M645.087 926.455C654.938 928.323 676.666 918.426 692.688 921.465L699.65 884.766C683.627 881.726 667.033 864.56 657.181 862.691C638.561 859.159 620.695 870.574 617.368 888.112C614.041 905.65 626.466 922.923 645.087 926.455Z" fill="#353535"/>
<path d="M574.149 846.942C564.297 845.073 542.569 854.971 526.547 851.931L519.586 888.631C535.608 891.67 552.202 908.837 562.054 910.705C580.782 914.258 598.541 902.822 601.888 885.176C605.235 867.53 592.769 850.474 574.149 846.942Z" fill="#353535"/>
<path d="M665.088 897.276C666.463 890.023 661.314 882.878 653.628 881.42C645.941 879.962 638.533 884.725 637.157 891.978C635.781 899.231 640.931 906.376 648.617 907.834C656.303 909.292 663.712 904.529 665.088 897.276Z" fill="#5B5B5B"/>
<path d="M554.126 876.228C552.75 883.482 557.899 890.627 565.586 892.085C573.272 893.543 580.68 888.779 582.056 881.526C583.432 874.273 578.282 867.128 570.596 865.67C562.91 864.212 555.501 868.975 554.126 876.228Z" fill="#5B5B5B"/>
<path d="M659.783 896.272C660.625 891.834 657.426 887.414 652.662 886.51C647.899 885.607 643.303 888.548 642.462 892.987C641.62 897.425 644.819 901.845 649.582 902.749C654.345 903.652 658.941 900.711 659.783 896.272Z" fill="#BFBFBF"/>
<path d="M559.538 877.258C558.675 881.804 561.895 886.116 566.658 887.02C571.421 887.923 576.017 884.982 576.859 880.543C577.701 876.105 574.502 871.685 569.738 870.781C564.975 869.878 560.38 872.819 559.538 877.258Z" fill="#BFBFBF"/>
<path d="M476.328 815.712C475.055 822.424 477.688 828.643 482.235 829.506C486.782 830.368 491.402 825.525 492.675 818.813L494.892 807.121C500.367 807.823 505.774 808.288 511.068 808.17L511.875 819.875C512.376 826.699 516.534 831.974 521.07 831.713C525.626 831.344 528.874 825.455 528.374 818.631L527.457 806.905C532.874 806.138 538.136 805.005 543.351 803.527L547.287 814.704C549.534 821.187 554.934 825.239 559.262 823.705C563.591 822.171 565.168 815.628 563.029 809.167L559.181 798.119C564.174 796.038 568.924 793.462 573.607 790.649L580.274 800.437C584.134 806.104 590.383 808.635 594.118 806.091C597.853 803.547 597.786 796.806 593.926 791.139L587.259 781.351C591.483 778.002 595.62 774.525 599.493 770.661L608.364 778.288C613.573 782.753 620.259 783.573 623.272 780.106C626.285 776.64 624.383 770.111 619.282 765.667L610.323 757.911C613.608 753.6 616.589 749.118 619.286 744.359L629.861 749.505C636.028 752.469 642.718 751.495 644.73 747.391C646.742 743.286 643.248 737.465 637.082 734.5L626.594 729.483C628.554 724.471 630.209 719.29 631.54 714.047L643.124 716.244C649.836 717.517 656.055 714.884 656.897 710.445C657.739 706.007 652.936 701.171 646.225 699.897L634.641 697.7C635.343 692.226 635.7 686.798 635.69 681.525L647.416 680.609C654.24 680.109 659.515 675.95 659.254 671.415C658.884 666.859 653.016 663.502 646.192 664.002L634.466 664.919C633.699 659.502 632.567 654.24 631.088 649.025L642.265 645.089C648.748 642.842 652.8 637.442 651.266 633.114C649.732 628.785 643.21 627.1 636.728 629.347L625.68 633.195C623.599 628.202 621.023 623.452 618.21 618.769L627.998 612.102C633.665 608.242 636.196 601.993 633.652 598.258C631.108 594.523 624.367 594.59 618.7 598.45L608.912 605.117C605.563 600.893 602.086 596.757 598.222 592.883L605.849 584.012C610.314 578.803 611.134 572.117 607.647 569.213C604.181 566.2 597.672 567.993 593.208 573.203L585.452 582.162C581.14 578.877 576.659 575.896 571.9 573.198L577.046 562.623C580.01 556.456 579.144 549.787 575.04 547.775C570.935 545.763 565.114 549.257 562.149 555.423L557.003 565.999C552.1 564.06 546.918 562.404 541.567 561.052L543.764 549.469C545.037 542.757 542.404 536.538 537.965 535.696C533.527 534.854 528.691 539.656 527.417 546.368L525.22 557.952C519.746 557.25 514.426 556.914 509.045 556.902L508.237 545.197C507.737 538.373 503.579 533.098 499.043 533.36C494.487 533.729 491.131 539.597 491.739 546.442L492.655 558.167C487.239 558.934 481.977 560.067 476.762 561.545L472.826 550.368C470.578 543.886 465.179 539.834 460.85 541.368C456.522 542.902 454.836 549.424 457.083 555.906L460.932 566.954C455.939 569.035 451.188 571.611 446.505 574.423L439.838 564.635C435.979 558.968 429.73 556.437 425.995 558.981C422.26 561.525 422.327 568.267 426.186 573.934L432.853 583.722C428.521 587.05 424.493 590.548 420.62 594.411L411.749 586.784C406.539 582.32 399.853 581.5 396.949 584.987C393.936 588.453 395.73 594.961 400.939 599.426L409.898 607.182C406.613 611.493 403.632 615.975 400.935 620.734L390.251 615.567C384.084 612.603 377.415 613.469 375.403 617.574C373.391 621.678 376.885 627.5 383.052 630.464L393.648 635.502C391.688 640.513 390.032 645.695 388.701 650.938L377.009 648.72C370.297 647.447 364.078 650.08 363.216 654.627C362.353 659.174 367.197 663.794 373.909 665.067L385.6 667.285C384.898 672.759 384.562 678.079 384.551 683.46L372.846 684.268C366.022 684.768 360.747 688.926 361.008 693.462C361.378 698.018 367.267 701.266 374.091 700.766L385.816 699.85C386.583 705.266 387.716 710.528 389.194 715.743L378.017 719.679C371.535 721.926 367.483 727.326 369.017 731.655C370.551 735.983 377.072 737.669 383.467 735.293L394.515 731.444C396.596 736.437 399.172 741.188 401.985 745.871L392.196 752.538C386.53 756.398 383.998 762.647 386.542 766.382C389.086 770.117 395.828 770.05 401.474 766.298L411.263 759.631C414.611 763.855 418.088 767.991 421.972 771.756L414.346 780.628C409.881 785.837 409.061 792.523 412.419 795.515C415.885 798.527 422.414 796.626 426.858 791.525L434.614 782.565C438.926 785.851 443.407 788.832 448.166 791.529L443.02 802.104C440.056 808.271 440.922 814.94 445.026 816.953C449.131 818.965 454.953 815.471 457.917 809.304L462.955 798.708C467.946 800.776 473.148 802.324 478.391 803.654L476.173 815.346L476.328 815.712ZM450.43 671.395C456.672 638.484 488.355 616.904 521.265 623.147C554.176 629.389 575.755 661.072 569.513 693.982C563.27 726.893 531.588 748.472 498.678 742.23C465.767 735.987 444.188 704.305 450.43 671.395Z" fill="#F4A72C"/>
<path d="M620.718 703.694C632.32 642.528 592.163 583.433 530.998 571.831C469.833 560.23 410.846 600.407 399.224 661.68C387.601 722.954 427.799 781.832 488.964 793.434C550.129 805.036 609.116 764.859 620.718 703.694ZM450.429 671.393C456.672 638.483 488.355 616.903 521.265 623.145C554.175 629.388 575.755 661.071 569.512 693.981C563.27 726.891 531.587 748.471 498.677 742.228C465.767 735.986 444.187 704.303 450.429 671.393Z" fill="#CC7606"/>
<path d="M587.484 697.39C595.595 654.629 567.545 613.307 524.675 605.175C481.805 597.044 440.679 625.244 432.568 668.005C424.457 710.767 452.529 751.98 495.29 760.091C538.052 768.202 579.373 740.152 587.484 697.39ZM450.431 671.394C456.673 638.483 488.356 616.904 521.266 623.146C554.176 629.388 575.756 661.071 569.514 693.981C563.271 726.892 531.589 748.471 498.678 742.229C465.768 735.987 444.188 704.304 450.431 671.394Z" fill="#FFCC83"/>
<path d="M504.221 713.004C487.442 709.821 476.476 693.722 479.659 676.942C482.842 660.162 498.941 649.197 515.721 652.38C532.501 655.562 543.466 671.661 540.283 688.441C537.1 705.221 521.001 716.186 504.221 713.004Z" fill="#BFBFBF"/>
</g>
<path d="M111.014 906.794C116.387 899.515 127.271 899.515 132.645 906.794L199.699 997.63C206.25 1006.5 199.914 1019.06 188.884 1019.06H54.7752C43.7449 1019.06 37.4092 1006.5 43.9601 997.63L111.014 906.794Z" stroke="#E8E8E8" stroke-width="1.79235"/>
<path d="M100.715 909.28C104.925 901.273 115.684 899.627 122.096 906.009L202.117 985.659C209.935 993.44 205.57 1006.81 194.667 1008.47L62.1008 1028.76C51.1974 1030.42 43.0362 1018.98 48.1697 1009.21L100.715 909.28Z" stroke="#4FA2EF" stroke-width="1.79235"/>
<path d="M99.8066 961.494V972.988H108.427C110.017 972.988 111.368 972.433 112.479 971.321C113.609 970.191 114.174 968.831 114.174 967.241C114.174 965.651 113.609 964.3 112.479 963.189C111.368 962.059 110.017 961.494 108.427 961.494H99.8066ZM96.9331 960.057C96.9331 959.655 97.0672 959.32 97.3354 959.051C97.6227 958.764 97.9676 958.62 98.3699 958.62H108.427C110.803 958.62 112.833 959.463 114.519 961.149C116.205 962.835 117.048 964.866 117.048 967.241C117.048 969.616 116.205 971.647 114.519 973.333C112.833 975.019 110.803 975.862 108.427 975.862H98.3699C97.9676 975.862 97.6227 975.727 97.3354 975.459C97.0672 975.172 96.9331 974.827 96.9331 974.425V960.057ZM99.8066 981.609V991.666C99.8066 992.068 99.663 992.413 99.3756 992.7C99.1074 992.969 98.7722 993.103 98.3699 993.103C97.9676 993.103 97.6227 992.969 97.3354 992.7C97.0672 992.413 96.9331 992.068 96.9331 991.666V980.172C96.9331 979.77 97.0672 979.434 97.3354 979.166C97.6227 978.879 97.9676 978.735 98.3699 978.735H108.427C111.607 978.735 114.318 977.614 116.559 975.373C118.801 973.132 119.921 970.421 119.921 967.241C119.921 964.061 118.801 961.35 116.559 959.109C114.318 956.868 111.607 955.747 108.427 955.747H94.0596V991.666C94.0596 992.068 93.9159 992.413 93.6285 992.7C93.3603 992.969 93.0251 993.103 92.6228 993.103C92.2205 993.103 91.8757 992.969 91.5883 992.7C91.3201 992.413 91.186 992.068 91.186 991.666V954.31C91.186 953.908 91.3201 953.573 91.5883 953.304C91.8757 953.017 92.2205 952.873 92.6228 952.873H108.427C112.393 952.873 115.774 954.281 118.571 957.097C121.387 959.894 122.795 963.276 122.795 967.241C122.795 971.206 121.387 974.597 118.571 977.413C115.774 980.21 112.393 981.609 108.427 981.609H99.8066Z" fill="#E8E8E8"/>
<path d="M128.027 957.787L162.912 992.672C163.199 992.959 163.544 993.103 163.947 993.103C164.349 993.103 164.694 992.968 164.981 992.7C165.249 992.413 165.383 992.068 165.383 991.666C165.383 991.263 165.24 990.919 164.952 990.631L127.596 953.275C127.328 953.007 126.993 952.873 126.591 952.873C126.188 952.873 125.853 953.017 125.585 953.304C125.298 953.572 125.154 953.908 125.154 954.31V991.666C125.154 992.068 125.298 992.413 125.585 992.7C125.853 992.968 126.188 993.103 126.591 993.103H140.958C141.361 993.103 141.705 992.968 141.993 992.7C142.261 992.413 142.395 992.068 142.395 991.666C142.395 991.263 142.261 990.928 141.993 990.66C141.705 990.373 141.361 990.229 140.958 990.229H128.027V957.787ZM132.338 987.355H140.958C141.361 987.355 141.705 987.221 141.993 986.953C142.261 986.666 142.395 986.321 142.395 985.919C142.395 985.516 142.261 985.181 141.993 984.913C141.705 984.626 141.361 984.482 140.958 984.482H133.774V972.154L154.291 992.672C154.579 992.959 154.924 993.103 155.326 993.103C155.728 993.103 156.073 992.968 156.36 992.7C156.629 992.413 156.763 992.068 156.763 991.666C156.763 991.263 156.619 990.919 156.332 990.631L133.343 967.643C133.075 967.375 132.74 967.241 132.338 967.241C131.935 967.241 131.591 967.375 131.303 967.643C131.035 967.93 130.901 968.275 130.901 968.678V985.919C130.901 986.321 131.045 986.666 131.332 986.953C131.6 987.221 131.935 987.355 132.338 987.355Z" fill="#4FA2EF"/>
<path d="M101.238 1043.55C100.31 1043.55 99.6059 1043.12 99.2836 1042.46L99.9842 1041.96C100.236 1042.41 100.706 1042.66 101.249 1042.66C101.883 1042.66 102.363 1042.35 102.363 1041.92C102.363 1041.4 101.62 1041.08 100.962 1040.8C100.299 1040.51 99.5638 1040.16 99.5638 1039.28C99.5638 1038.35 100.366 1037.71 101.382 1037.71C102.188 1037.71 102.79 1038.1 103.021 1038.72L102.363 1039.17C102.188 1038.79 101.799 1038.58 101.389 1038.58C100.87 1038.58 100.457 1038.9 100.457 1039.3C100.457 1039.74 100.979 1039.9 101.666 1040.19C102.559 1040.58 103.252 1041.01 103.252 1041.9C103.252 1042.91 102.384 1043.55 101.238 1043.55ZM104.016 1043.46V1037.81H104.902V1043.46H104.016ZM109.642 1037.8H110.532V1043.55H110.49L106.878 1039.78V1043.46H105.992V1037.71H106.037L109.642 1041.48V1037.8ZM114.276 1043.55C112.675 1043.55 111.348 1042.23 111.348 1040.64C111.348 1039.05 112.675 1037.71 114.262 1037.71C114.994 1037.72 115.671 1038.03 116.224 1038.57L115.709 1039.27C115.313 1038.87 114.798 1038.61 114.245 1038.61C113.222 1038.61 112.245 1039.51 112.245 1040.64C112.245 1041.78 113.236 1042.66 114.248 1042.66C114.826 1042.66 115.324 1042.37 115.713 1041.98L116.224 1042.7C115.737 1043.18 115.117 1043.55 114.276 1043.55ZM120.291 1038.68H117.814V1040.13H119.951V1041.01H117.814V1042.57H120.291V1043.46H116.928V1037.81H120.291V1038.68Z" fill="#E8E8E8"/>
<path d="M126.318 1036.32H126.71V1044.95H125.369V1038.05L124.214 1038.39V1036.99L126.318 1036.32ZM130.944 1036.29C132.63 1036.29 133.954 1037.66 133.954 1039.22C133.954 1040.43 133.499 1040.76 131.077 1044.96H129.545L131.363 1041.81C131.103 1041.91 130.828 1041.96 130.557 1041.96C129.206 1041.96 127.945 1040.81 127.945 1039.21C127.945 1037.65 129.27 1036.29 130.944 1036.29ZM130.939 1040.85C131.856 1040.85 132.614 1040.11 132.614 1039.23C132.614 1038.38 131.856 1037.62 130.944 1037.62C130.028 1037.62 129.28 1038.38 129.28 1039.23C129.28 1040.11 130.028 1040.85 130.939 1040.85ZM137.781 1036.29C139.466 1036.29 140.791 1037.66 140.791 1039.22C140.791 1040.43 140.335 1040.76 137.913 1044.96H136.382L138.199 1041.81C137.94 1041.91 137.664 1041.96 137.394 1041.96C136.042 1041.96 134.781 1040.81 134.781 1039.21C134.781 1037.65 136.106 1036.29 137.781 1036.29ZM137.775 1040.85C138.692 1040.85 139.45 1040.11 139.45 1039.23C139.45 1038.38 138.692 1037.62 137.781 1037.62C136.864 1037.62 136.117 1038.38 136.117 1039.23C136.117 1040.11 136.864 1040.85 137.775 1040.85ZM143.721 1036.32H144.113V1044.95H142.773V1038.05L141.617 1038.39V1036.99L143.721 1036.32Z" fill="#E8E8E8"/>
<path d="M159.289 986.597C169.038 997.25 173.268 997.999 177.977 987.342" stroke="#4FA2EF" stroke-width="2.74229"/>
<path d="M152.837 988.77C166.752 1005.43 181.952 1003.01 183.426 989.463" stroke="#4FA2EF" stroke-width="2.86776"/>
</g>
<defs>
<linearGradient id="paint0_linear_117_358" x1="542" y1="954.263" x2="542" y2="0.26306" gradientUnits="userSpaceOnUse">
<stop stop-color="#232323"/>
<stop offset="1" stop-color="#262626"/>
</linearGradient>
<clipPath id="clip0_117_358">
<rect width="1080" height="1080" fill="white" transform="matrix(1 0 0 -1 0 1080)"/>
</clipPath>
<clipPath id="clip1_117_358">
<rect width="428.629" height="1281.92" fill="white" transform="translate(1608.34 672.897) rotate(100.74)"/>
</clipPath>
</defs>
</svg>
